<svg xmlns="http://www.w3.org/2000/svg" xmlns:xlink="http://www.w3.org/1999/xlink" width="226.932" height="61.672" viewBox="0 0 226.932 61.672"><defs><style>.a,.f{fill:#2ad588;}.a,.b{fill-rule:evenodd;}.b{fill:#fff;}.c{fill:#222342;}.d{fill:#0c2c3b;}.e{fill:url(#a);}</style><linearGradient id="a" y1="0.5" x2="1" y2="0.5" gradientUnits="objectBoundingBox"><stop offset="0" stop-color="#2ad588"/><stop offset="1" stop-color="#17d27e"/></linearGradient></defs><path class="a" d="M22.694,18.405,9.815,40.874l-3.268-5.7,12.88-22.479h10.64l12.88,22.479-3.268,5.7H26.594l-1.812-3.159-5.06,8.871H42.945l6.547-11.414L36.613,12.693l-3.268-5.7h-17.2l-3.268,5.7L0,35.172l3.268,5.7,3.278,5.712h6.547l2.148-3.753,9.5-16.582,5.121,8.922h6.547l-1.833-3.2L26.8,18.405Z" transform="translate(0 1.335)"/><path class="b" d="M29.016,11.8H18.376L5.5,34.275l3.268,5.7,12.88-22.469h4.1l7.768,13.567,1.843,3.2H28.812l-5.121-8.922-9.5,16.572-2.148,3.764h6.628l5.06-8.871,1.8,3.158H38.617l3.279-5.7Z" transform="translate(1.05 2.253)"/><path class="c" d="M167.3,18.4V22.66c-.376,0-.662-.051-1.018-.051-2.484,0-4.134,1.384-4.134,4.44v7.517h-4.52V18.639h4.316v2.051A6.223,6.223,0,0,1,167.3,18.4Z" transform="translate(30.109 3.511)"/><path class="d" d="M64.63,30.853H55.222l-1.792,4.44H48.624l9.031-20.725h4.633l9.061,20.725H66.421Zm-1.476-3.64-3.207-7.937-3.217,7.937Z" transform="translate(9.288 2.783)"/><path class="d" d="M69.243,13.527h4.51V35.493h-4.51Z" transform="translate(13.227 2.584)"/><path class="d" d="M92.774,18.638V31.9c0,5.917-3.126,8.645-8.746,8.645a12.57,12.57,0,0,1-7.636-2.195l1.833-3.312a9.121,9.121,0,0,0,5.5,1.8c3.187,0,4.571-1.477,4.571-4.348v-.687a6.32,6.32,0,0,1-4.979,1.989,7.443,7.443,0,0,1-5.553-2.149,7.555,7.555,0,0,1-2.236-5.553,7.555,7.555,0,0,1,2.239-5.546A7.444,7.444,0,0,1,83.316,18.4a6.181,6.181,0,0,1,5.152,2.277V18.628Zm-4.459,7.455a4.126,4.126,0,0,0-.59-2.33,4.067,4.067,0,0,0-7.457,1.26,4.116,4.116,0,0,0,1.693,4.269A4.052,4.052,0,0,0,84.242,30a3.791,3.791,0,0,0,2.892-1.049,3.849,3.849,0,0,0,1.181-2.858Z" transform="translate(14.426 3.513)"/><path class="d" d="M92.555,26.6c0-4.789,3.625-8.2,8.573-8.2s8.532,3.4,8.532,8.2-3.584,8.2-8.532,8.2S92.555,31.354,92.555,26.6Zm12.533,0c0-2.748-1.71-4.41-3.96-4.41s-4,1.661-4,4.41,1.741,4.41,4,4.41S105.088,29.354,105.088,26.6Z" transform="translate(17.68 3.513)"/><path class="d" d="M108.378,33.311l1.589-3.61a11.754,11.754,0,0,0,6.689,2.154c2.78,0,3.91-.944,3.91-2.215,0-3.876-11.78-1.22-11.78-8.912,0-3.528,2.77-6.461,8.532-6.461a13.406,13.406,0,0,1,7.035,1.836l-1.446,3.641a11.32,11.32,0,0,0-5.62-1.62c-2.779,0-3.848,1.025-3.848,2.369,0,3.815,11.78,1.179,11.78,8.789,0,3.466-2.811,6.43-8.593,6.43A14.182,14.182,0,0,1,108.378,33.311Z" transform="translate(20.702 2.725)"/><path class="d" d="M141.907,26.592c0,5-3.38,8.2-7.758,8.2a5.965,5.965,0,0,1-4.683-1.928V40.3h-4.52V18.635h4.316V20.47a5.977,5.977,0,0,1,4.887-2.051C138.527,18.4,141.907,21.588,141.907,26.592Zm-4.571,0c0-2.748-1.71-4.41-3.96-4.41s-3.971,1.661-3.971,4.41,1.71,4.41,3.971,4.41S137.336,29.351,137.336,26.592Z" transform="translate(23.867 3.516)"/><path class="d" d="M140.743,26.6c0-4.789,3.615-8.2,8.562-8.2s8.543,3.4,8.543,8.2-3.594,8.2-8.543,8.2S140.743,31.354,140.743,26.6Zm12.533,0c0-2.748-1.71-4.41-3.971-4.41s-3.991,1.661-3.991,4.41,1.741,4.41,3.991,4.41,4.022-1.651,4.022-4.41Z" transform="translate(26.884 3.513)"/><path class="d" d="M178.813,34.321a6.383,6.383,0,0,1-3.675,1.025c-3.675,0-5.824-1.928-5.824-5.712V23.071h-2.4V19.513h2.4V15.636h4.52v3.876h3.879v3.559h-3.879v6.481a1.857,1.857,0,0,0,.47,1.515,1.836,1.836,0,0,0,.667.46,1.817,1.817,0,0,0,.8.127,2.971,2.971,0,0,0,1.822-.595Z" transform="translate(31.883 2.987)"/><path class="d" d="M177.81,33.082l1.507-3.323a10.411,10.411,0,0,0,5.406,1.538c2.088,0,2.872-.554,2.872-1.446,0-2.6-9.408.062-9.408-6.307,0-3.015,2.657-5.127,7.208-5.127a12.633,12.633,0,0,1,5.987,1.384l-1.507,3.292a8.728,8.728,0,0,0-4.481-1.19c-2.035,0-2.9.656-2.9,1.487,0,2.718,9.408.082,9.408,6.358,0,2.964-2.688,5.066-7.351,5.066A13.162,13.162,0,0,1,177.81,33.082Z" transform="translate(33.965 3.518)"/><path class="e" d="M134.706,16.48s55.6-7.773,46.265-13.547c0,0-14.632-8.6-88.416,3.661,0,0,69.957-10.255,77.511-2.471C170.066,4.1,175.768,10.368,134.706,16.48Z" transform="translate(17.68)"/><path class="f" d="M6.494-5.117H8.415V-3.6a2.7,2.7,0,0,1-.748,1.8,2.861,2.861,0,0,1-2.023.612,4.524,4.524,0,0,1-1.19-.136,1.913,1.913,0,0,1-.825-.451,2.789,2.789,0,0,1-.536-.689,3.058,3.058,0,0,1-.3-1Q2.7-4.1,2.669-4.692T2.635-6.2q0-1.054.051-1.743a7.3,7.3,0,0,1,.238-1.377A2.63,2.63,0,0,1,3.451-10.4a2.442,2.442,0,0,1,.927-.62,3.828,3.828,0,0,1,1.436-.238,2.535,2.535,0,0,1,2.057.722,3.732,3.732,0,0,1,.7,2.134H9.826V-12.41H8.551v1.088a3.046,3.046,0,0,0-2.822-1.326,6.618,6.618,0,0,0-2.116.3,3.84,3.84,0,0,0-1.411.8A3.238,3.238,0,0,0,1.377-10.2a8.335,8.335,0,0,0-.391,1.76A20.555,20.555,0,0,0,.884-6.2q0,1.122.051,1.878a11.89,11.89,0,0,0,.212,1.555,3.9,3.9,0,0,0,.476,1.3,3.787,3.787,0,0,0,.825.918,3.177,3.177,0,0,0,1.283.6A7.851,7.851,0,0,0,5.559.238a3.569,3.569,0,0,0,3.2-1.5L9.027,0h.918V-6.273H6.494Zm8.092-4.607H12.631v1.156h1.02v7.412h-1.02V0h4.1V-1.156h-1.36V-6.715a3.859,3.859,0,0,1,3.3-1.717v-1.53a4.1,4.1,0,0,0-3.434,1.887ZM24-1.122a3.761,3.761,0,0,1-1.037-.128,1.581,1.581,0,0,1-.714-.408,2.8,2.8,0,0,1-.442-.586,2.4,2.4,0,0,1-.247-.782q-.077-.476-.1-.867t-.026-.969q0-.578.026-.969t.1-.867a2.4,2.4,0,0,1,.247-.782,2.8,2.8,0,0,1,.442-.587,1.581,1.581,0,0,1,.714-.408A3.761,3.761,0,0,1,24-8.6a3.761,3.761,0,0,1,1.037.128,1.581,1.581,0,0,1,.714.408,2.8,2.8,0,0,1,.442.587,2.4,2.4,0,0,1,.247.782q.077.476.1.867t.025.969q0,.578-.025.969t-.1.867a2.4,2.4,0,0,1-.247.782,2.8,2.8,0,0,1-.442.586,1.581,1.581,0,0,1-.714.408A3.761,3.761,0,0,1,24-1.122Zm0,1.36a5.741,5.741,0,0,0,1.929-.289,3.327,3.327,0,0,0,1.25-.731,3.147,3.147,0,0,0,.705-1.156,5.647,5.647,0,0,0,.332-1.369,15.318,15.318,0,0,0,.068-1.556,15.317,15.317,0,0,0-.068-1.556,5.647,5.647,0,0,0-.332-1.369,3.147,3.147,0,0,0-.705-1.156,3.327,3.327,0,0,0-1.25-.731A5.741,5.741,0,0,0,24-9.962a5.741,5.741,0,0,0-1.93.289,3.327,3.327,0,0,0-1.25.731,3.147,3.147,0,0,0-.705,1.156,5.647,5.647,0,0,0-.332,1.369,15.318,15.318,0,0,0-.068,1.556,15.318,15.318,0,0,0,.068,1.556,5.647,5.647,0,0,0,.332,1.369,3.147,3.147,0,0,0,.705,1.156,3.327,3.327,0,0,0,1.25.731A5.741,5.741,0,0,0,24,.238Zm7.072-9.962h-1.02v1.156h1.02v5.763a3.365,3.365,0,0,0,.672,2.278,2.892,2.892,0,0,0,2.27.765A5.994,5.994,0,0,0,37.57-.986L37.961,0H40.12V-1.156H39.1V-9.724H36.363v1.156h1.02V-2.21a4.51,4.51,0,0,1-2.856,1.088,1.724,1.724,0,0,1-1.343-.442,2.13,2.13,0,0,1-.391-1.428V-9.724Zm12.767,0H41.888v1.156h1.02v11.1h-1.02V3.672h4.1V2.533h-1.36V-.221a7.252,7.252,0,0,0,2.5.459,4.522,4.522,0,0,0,1.7-.289,2.977,2.977,0,0,0,1.113-.731,3.124,3.124,0,0,0,.629-1.156,6.766,6.766,0,0,0,.3-1.369,15.319,15.319,0,0,0,.068-1.556,15.319,15.319,0,0,0-.068-1.556,7.129,7.129,0,0,0-.289-1.369,3.106,3.106,0,0,0-.612-1.156,2.922,2.922,0,0,0-1.079-.731,4.275,4.275,0,0,0-1.658-.289,4.872,4.872,0,0,0-2.958,1.054ZM46.835-8.6a2.455,2.455,0,0,1,1.071.213,1.938,1.938,0,0,1,.7.536,2.276,2.276,0,0,1,.391.85,6.247,6.247,0,0,1,.178,1q.043.476.043,1.139,0,.731-.043,1.233a5.369,5.369,0,0,1-.187,1.011,2.12,2.12,0,0,1-.408.816,1.856,1.856,0,0,1-.722.493,2.979,2.979,0,0,1-1.122.187,5.752,5.752,0,0,1-2.108-.391V-7.854A3.866,3.866,0,0,1,46.835-8.6Z" transform="translate(176 58)"/></svg>