<svg xmlns="http://www.w3.org/2000/svg" xmlns:xlink="http://www.w3.org/1999/xlink" width="1366" height="490" viewBox="0 0 1366 490">
  <defs>
    <clipPath id="clip-path">
      <rect id="Rectangle_53" data-name="Rectangle 53" width="1366" height="490" transform="translate(0 3241)" fill="#fff"/>
    </clipPath>
    <clipPath id="clip-path-2">
      <rect id="Rectangle_28" data-name="Rectangle 28" width="444" height="486" fill="#fff"/>
    </clipPath>
  </defs>
  <g id="pattern_bg_dark" transform="translate(0 -3241)" clip-path="url(#clip-path)">
    <g id="Group_59" data-name="Group 59">
      <g id="Artboard_1" data-name="Artboard 1" transform="translate(-23 3241)" opacity="0.12" clip-path="url(#clip-path-2)">
        <path id="Path_94" data-name="Path 94" d="M-1.192,157.768a30.252,30.252,0,0,0-16.6,16.6,30.256,30.256,0,0,0,0,22.694,30.252,30.252,0,0,0,16.6,16.6,30.267,30.267,0,0,0,22.694,0,29.95,29.95,0,0,0,9.976-6.624,29.922,29.922,0,0,0,6.624-9.976,30.276,30.276,0,0,0,0-22.694,30.252,30.252,0,0,0-16.6-16.6,30.284,30.284,0,0,0-22.694,0Zm-11.271,40.641a20.7,20.7,0,0,1-3.976-3.2,28.427,28.427,0,0,1-.917-15.841,25.3,25.3,0,0,1,1.932-3.2c.224-.316.432-.645.672-.952l6.8,4.027v.171a52.419,52.419,0,0,0,1.094,10.874c0,.017.005.026.008.041l-5.277,8.275a3.8,3.8,0,0,1-.34-.192ZM7.769,212.4a25.9,25.9,0,0,0,3.623,1.517,28.28,28.28,0,0,1-15.3-3.706L7.5,212.242C7.587,212.3,7.676,212.351,7.769,212.4Zm-.042-2.059-13.461-2.4a42.03,42.03,0,0,1-4.209-6.1c-.31-.55-.656-1.084-.918-1.658l5.272-8.267c.117.029.247.06.394.1a87.509,87.509,0,0,0,10.035,2c.2.027.362.052.5.067l6.32,10.927q-1.645,2.312-3.339,4.591c-.188.253-.388.5-.6.736Zm22.4-4.655a28.045,28.045,0,0,1-3.4,2.9A25.843,25.843,0,0,0,25.7,203.95l6.743-12.58a31.494,31.494,0,0,0,5.312-2.994,2.375,2.375,0,0,0,.538-.515,28.1,28.1,0,0,1-8.175,17.823Zm-.3-16.314c.251.478.5.962.747,1.452l-6.513,12.15c-.037.008-.073.017-.111.022A59.414,59.414,0,0,1,13.3,204.017L6.8,192.778q1.518-2.818,3.008-5.651c.675-1.28,1.338-2.568,2-3.856L25.26,181.89a75.084,75.084,0,0,1,4.565,7.48ZM27.1,174.959c-.638,1.686-1.322,3.354-2,5.026l-13.1,1.346c-.157-.207-.319-.41-.49-.6q-2.321-2.628-4.66-5.241c.014-.018.028-.031.042-.047L5,173.556l3.648-10.984a5.108,5.108,0,0,1,.761-.15c1.983-.2,3.969-.43,5.957-.545a28.978,28.978,0,0,1,3.68-.02l9.026,10.174c-.311.982-.614,1.967-.976,2.927Zm3.028-9.213a28.117,28.117,0,0,1,5.782,8.372,28.661,28.661,0,0,0-5.386-2.894c-.295-.122-.6-.229-.9-.335L20.73,160.875a11.736,11.736,0,0,0,.107-1.3,28.1,28.1,0,0,1,9.286,6.174Zm-29.012-6.7c.035.026.052.048.072.053a22.587,22.587,0,0,1,5.62,2.961L3.394,172.325a.367.367,0,0,0-.051.018c-.7.288-1.408.547-2.095.859a60.086,60.086,0,0,0-8.186,4.417l-6.726-3.979a2.032,2.032,0,0,1,.117-.613c.452-1.2.9-2.413,1.407-3.592a26.93,26.93,0,0,1,1.331-2.643c.32-.353.652-.7.993-1.045a28.073,28.073,0,0,1,10.988-6.8C1.153,158.977,1.131,159.011,1.111,159.046Z" transform="translate(-4.677 36.38)" fill="#fff"/>
        <path id="Path_95" data-name="Path 95" d="M359.955,157.768a30.277,30.277,0,1,0,11.347-2.207,30.277,30.277,0,0,0-11.347,2.207ZM348.684,198.41a20.7,20.7,0,0,1-3.976-3.2,28.427,28.427,0,0,1-.917-15.841,25.3,25.3,0,0,1,1.932-3.2c.224-.316.432-.645.672-.952l6.8,4.027v.171a52.424,52.424,0,0,0,1.094,10.874c0,.017.005.026.008.041l-5.277,8.275a3.841,3.841,0,0,1-.34-.192ZM368.916,212.4a25.893,25.893,0,0,0,3.623,1.517,28.279,28.279,0,0,1-15.3-3.706l11.407,2.033c.088.056.177.109.27.157Zm-.042-2.059-13.461-2.4a42.029,42.029,0,0,1-4.209-6.1c-.31-.55-.656-1.084-.918-1.658l5.272-8.267c.117.029.247.06.394.1a87.5,87.5,0,0,0,10.035,2c.2.027.363.052.5.067l6.32,10.927q-1.645,2.312-3.339,4.591c-.188.253-.388.5-.6.737Zm22.4-4.655a28.043,28.043,0,0,1-3.4,2.9,25.834,25.834,0,0,0-1.019-4.636l6.743-12.58a31.5,31.5,0,0,0,5.312-2.994,2.376,2.376,0,0,0,.538-.515,28.1,28.1,0,0,1-8.175,17.823Zm-.3-16.315c.251.478.5.962.747,1.452l-6.513,12.15c-.037.008-.073.017-.111.022a59.414,59.414,0,0,1-10.648,1.024l-6.5-11.239q1.518-2.818,3.008-5.651c.675-1.28,1.338-2.568,2-3.856l13.452-1.382a75.087,75.087,0,0,1,4.565,7.481Zm-2.729-14.411c-.638,1.686-1.322,3.354-2,5.026l-13.1,1.346c-.157-.207-.319-.41-.49-.6q-2.321-2.628-4.66-5.241c.014-.018.028-.031.042-.047l-1.884-1.882,3.648-10.984a5.108,5.108,0,0,1,.761-.15c1.983-.2,3.969-.43,5.957-.545a28.972,28.972,0,0,1,3.68-.02l9.026,10.174c-.311.982-.615,1.967-.976,2.927Zm3.028-9.213a28.116,28.116,0,0,1,5.781,8.372,28.661,28.661,0,0,0-5.386-2.894c-.295-.122-.6-.229-.9-.335l-8.885-10.014a11.74,11.74,0,0,0,.107-1.3,28.1,28.1,0,0,1,9.286,6.174Zm-29.012-6.7c.035.026.052.048.072.053a22.587,22.587,0,0,1,5.62,2.961l-3.408,10.264a.369.369,0,0,0-.051.018c-.7.288-1.408.547-2.095.859a60.084,60.084,0,0,0-8.186,4.417l-6.726-3.979a2.029,2.029,0,0,1,.117-.613c.452-1.2.9-2.413,1.407-3.592a26.924,26.924,0,0,1,1.331-2.643c.32-.353.652-.7.993-1.045a28.073,28.073,0,0,1,10.988-6.8c-.02.033-.043.067-.062.1Z" transform="translate(79.752 36.38)" fill="#fff"/>
        <path id="Path_96" data-name="Path 96" d="M194.009,343.36a57.083,57.083,0,0,1,8.821-.676c1.412,0,2.825.052,4.2.155a6.633,6.633,0,0,1,5.965,6.25,65.866,65.866,0,0,1-.486,13.651Zm-35.951,37.649a65.87,65.87,0,0,0-.486,13.651,6.634,6.634,0,0,0,5.965,6.25c1.372.1,2.783.155,4.2.155h0a57.107,57.107,0,0,0,8.819-.675Zm53.757-14.383A46.951,46.951,0,0,1,201.124,388.4c-.024.027-.049.052-.074.078a43.272,43.272,0,0,1-20.787,11.192l-21.515-22.545a46.951,46.951,0,0,1,10.691-21.771q.036-.04.074-.077A43.271,43.271,0,0,1,190.3,344.082Zm-15,.127-2.223-2.33,1.73-1.812a1.685,1.685,0,0,0,0-2.3,1.505,1.505,0,0,0-2.2,0l-1.73,1.812-2.224-2.33a1.505,1.505,0,0,0-2.2,0,1.685,1.685,0,0,0,0,2.3l2.223,2.33-2.542,2.663-2.224-2.33a1.505,1.505,0,0,0-2.2,0,1.685,1.685,0,0,0,0,2.3l2.223,2.33-2.542,2.663-2.224-2.329a1.505,1.505,0,0,0-2.2,0,1.685,1.685,0,0,0,0,2.3l2.223,2.33-2.542,2.663-2.224-2.33a1.505,1.505,0,0,0-2.2,0,1.685,1.685,0,0,0,0,2.3l2.223,2.33-1.73,1.812a1.685,1.685,0,0,0,0,2.3,1.505,1.505,0,0,0,2.2,0l1.73-1.812,2.223,2.33a1.506,1.506,0,0,0,2.2,0,1.685,1.685,0,0,0,0-2.3l-2.223-2.33,2.542-2.663,2.223,2.33a1.506,1.506,0,0,0,2.2,0,1.685,1.685,0,0,0,0-2.3l-2.224-2.33,2.542-2.663,2.223,2.33a1.506,1.506,0,0,0,2.2,0,1.684,1.684,0,0,0,0-2.3l-2.223-2.33,2.542-2.663,2.223,2.33a1.506,1.506,0,0,0,2.2,0,1.687,1.687,0,0,0,0-2.3Z" transform="translate(36.814 93.705)" fill="#fff"/>
        <path id="Path_97" data-name="Path 97" d="M191.231,165.576a57.072,57.072,0,0,1,8.82-.675c1.412,0,2.825.052,4.2.155a6.633,6.633,0,0,1,5.965,6.25,65.869,65.869,0,0,1-.486,13.651ZM155.28,203.225a65.867,65.867,0,0,0-.486,13.651,6.633,6.633,0,0,0,5.965,6.25c1.372.1,2.783.155,4.2.155h0a57.083,57.083,0,0,0,8.819-.675Zm53.757-14.383a46.953,46.953,0,0,1-10.691,21.771q-.036.04-.074.077a43.272,43.272,0,0,1-20.787,11.192L155.97,199.338a46.952,46.952,0,0,1,10.691-21.771q.036-.04.074-.077A43.273,43.273,0,0,1,187.523,166.3Zm-15,.127-2.223-2.33,1.73-1.813a1.685,1.685,0,0,0,0-2.3,1.505,1.505,0,0,0-2.2,0l-1.73,1.812-2.224-2.33a1.505,1.505,0,0,0-2.2,0,1.685,1.685,0,0,0,0,2.3l2.223,2.33-2.542,2.663-2.224-2.33a1.505,1.505,0,0,0-2.2,0,1.685,1.685,0,0,0,0,2.3l2.223,2.33-2.542,2.663-2.223-2.33a1.505,1.505,0,0,0-2.2,0,1.685,1.685,0,0,0,0,2.3l2.223,2.33-2.542,2.663-2.224-2.33a1.505,1.505,0,0,0-2.2,0,1.685,1.685,0,0,0,0,2.3l2.223,2.33-1.73,1.812a1.685,1.685,0,0,0,0,2.3,1.506,1.506,0,0,0,2.2,0l1.73-1.812,2.224,2.33a1.505,1.505,0,0,0,2.2,0,1.684,1.684,0,0,0,0-2.3l-2.223-2.33,2.542-2.663,2.223,2.33a1.505,1.505,0,0,0,2.2,0,1.685,1.685,0,0,0,0-2.3l-2.224-2.33,2.542-2.663,2.224,2.33a1.505,1.505,0,0,0,2.2,0,1.684,1.684,0,0,0,0-2.3l-2.223-2.33,2.542-2.663,2.223,2.33a1.505,1.505,0,0,0,2.2,0,1.687,1.687,0,0,0,0-2.3Z" transform="translate(36.165 38.564)" fill="#fff"/>
        <path id="Path_98" data-name="Path 98" d="M194.01-29.324a57.079,57.079,0,0,1,8.82-.676c1.412,0,2.825.052,4.2.155a6.634,6.634,0,0,1,5.965,6.25A65.867,65.867,0,0,1,212.5-9.944ZM158.057,8.325a65.867,65.867,0,0,0-.486,13.651,6.634,6.634,0,0,0,5.965,6.25c1.372.1,2.783.155,4.2.155h0a57.1,57.1,0,0,0,8.819-.675ZM211.815-6.058a46.952,46.952,0,0,1-10.691,21.771q-.036.04-.074.077a43.27,43.27,0,0,1-20.787,11.192L158.747,4.438a46.952,46.952,0,0,1,10.691-21.771c.024-.027.048-.052.074-.078A43.272,43.272,0,0,1,190.3-28.6Zm-15,.127-2.223-2.33,1.73-1.812a1.685,1.685,0,0,0,0-2.3,1.505,1.505,0,0,0-1.1-.477,1.505,1.505,0,0,0-1.1.477l-1.73,1.812-2.224-2.33a1.505,1.505,0,0,0-1.1-.477,1.505,1.505,0,0,0-1.1.477,1.685,1.685,0,0,0,0,2.3l2.223,2.33L187.651-5.6l-2.224-2.33a1.505,1.505,0,0,0-1.1-.477,1.505,1.505,0,0,0-1.1.477,1.685,1.685,0,0,0,0,2.3l2.223,2.33L182.91-.63l-2.224-2.33a1.505,1.505,0,0,0-1.1-.477,1.505,1.505,0,0,0-1.1.477,1.685,1.685,0,0,0,0,2.3l2.223,2.33-2.542,2.663-2.224-2.33a1.505,1.505,0,0,0-2.2,0,1.685,1.685,0,0,0,0,2.3l2.223,2.33-1.73,1.812a1.685,1.685,0,0,0,0,2.3,1.506,1.506,0,0,0,2.2,0l1.73-1.812,2.223,2.33a1.506,1.506,0,0,0,2.2,0,1.685,1.685,0,0,0,0-2.3l-2.222-2.33,2.542-2.663,2.223,2.33a1.506,1.506,0,0,0,2.2,0,1.685,1.685,0,0,0,0-2.3l-2.224-2.33L187.653-.99l2.223,2.33a1.506,1.506,0,0,0,2.2,0,1.684,1.684,0,0,0,0-2.3l-2.223-2.33,2.542-2.663,2.223,2.33a1.516,1.516,0,0,0,1.1.477,1.516,1.516,0,0,0,1.1-.477,1.687,1.687,0,0,0,0-2.3Z" transform="translate(36.814 -7.016)" fill="#fff"/>
        <path id="Path_99" data-name="Path 99" d="M69.048,118.182a2.18,2.18,0,0,1-1.661-.75C64.036,113.5,54.719,95.3,58.522,83.762A30.55,30.55,0,0,1,82.373,63.681c12.775-2.339,25.543,2.559,35.042,13.438a1.906,1.906,0,0,1-.3,2.8,2.172,2.172,0,0,1-.67.346L97.33,86.236a2.162,2.162,0,0,1-2.69-1.261,1.968,1.968,0,0,1,1.345-2.521h0l16.081-5.025c-8.2-8.16-18.577-11.742-28.883-9.849a26.4,26.4,0,0,0-20.6,17.348c-3.29,10.015,5.554,27,8.123,30.024a1.907,1.907,0,0,1-.338,2.8,2.215,2.215,0,0,1-1.32.433Z" transform="translate(13.476 14.759)" fill="#fff"/>
        <path id="Path_100" data-name="Path 100" d="M97.017,114.535H67.284a1.994,1.994,0,1,1,0-3.98H94.893v-8.27a2.4,2.4,0,0,0-.656-1.638l-4.849-5.182a9.912,9.912,0,0,1,1.039-14.617,11.26,11.26,0,0,1,3.786-2.033A2.161,2.161,0,0,1,96.9,80.077a1.967,1.967,0,0,1-1.346,2.52,6.2,6.2,0,0,0-2.974,10.257l4.842,5.174a6.239,6.239,0,0,1,1.7,4.257v10.259a2.059,2.059,0,0,1-2.107,1.99Z" transform="translate(15.238 18.406)" fill="#fff"/>
        <path id="Path_101" data-name="Path 101" d="M104.929,112.266H90.062a1.994,1.994,0,1,1,0-3.98h13.9a12.753,12.753,0,0,0,3.094-7.961,12.493,12.493,0,0,0-2.6-7.338,20.088,20.088,0,0,1-8.017,1.367h-8.5a1.994,1.994,0,1,1,0-3.98h8.5c5.193,0,7.03-1.441,7.049-1.455a2.306,2.306,0,0,1,2.948.048,15.682,15.682,0,0,1,0,22.716,2.2,2.2,0,0,1-1.5.582Z" transform="translate(20.069 20.676)" fill="#fff"/>
        <path id="Path_102" data-name="Path 102" d="M106.247,98.821H91.381a1.994,1.994,0,1,1,0-3.98h14.866a1.994,1.994,0,1,1,0,3.98Z" transform="translate(20.874 22.179)" fill="#fff"/>
        <path id="Path_103" data-name="Path 103" d="M106.247,103.66H91.381a1.994,1.994,0,1,1,0-3.98h14.866a1.994,1.994,0,1,1,0,3.98Z" transform="translate(20.874 23.31)" fill="#fff"/>
        <path id="Path_104" data-name="Path 104" d="M98.266,111.893a2.061,2.061,0,0,1-2.124-1.99V91.991a2.128,2.128,0,0,1,4.248,0V109.9a2.061,2.061,0,0,1-2.124,1.991Z" transform="translate(22.484 21.048)" fill="#fff"/>
        <path id="Path_105" data-name="Path 105" d="M80.321,84.682A2.992,2.992,0,1,1,83.506,81.7a3.09,3.09,0,0,1-3.186,2.985Zm0-3.98a1,1,0,1,0,1.062,1,1.03,1.03,0,0,0-1.062-1Z" transform="translate(18.13 18.406)" fill="#fff"/>
        <path id="Path_106" data-name="Path 106" d="M84.624,103.231a2.992,2.992,0,1,1,3.186-2.985,3.09,3.09,0,0,1-3.186,2.985Zm0-3.98a1,1,0,1,0,1.062,1,1.03,1.03,0,0,0-1.062-.995Z" transform="translate(19.136 22.744)" fill="#fff"/>
        <path id="Path_107" data-name="Path 107" d="M254.713,255.427v52.214h5.221V291.977h41.771V255.427Zm26.107,5.221h5.221v5.219H280.82Zm-10.443,0H275.6v5.219h-5.221v-5.219Zm26.107,5.221h-5.221v5.219h-5.221v5.221h5.221v-5.219h5.221v5.221h-5.221v5.221h5.221v5.221h-5.221v-5.221h-5.221v5.221H280.82v-5.221H275.6v5.221h-5.221v-5.221h-5.221v5.221h-5.221v-5.221h5.221v-5.221h-5.221v-5.221h5.221v5.219h5.221v-5.221h-5.221v-5.219h-5.221v-5.221h5.221v5.221h5.221v5.219H275.6v-5.219h5.221v5.219h5.221v-5.219h5.221v-5.221h5.221Z" transform="translate(59.568 59.735)" fill="#fff"/>
        <rect id="Rectangle_22" data-name="Rectangle 22" width="5.221" height="5.221" transform="translate(335.166 330.823)" fill="#fff"/>
        <rect id="Rectangle_23" data-name="Rectangle 23" width="5.221" height="5.221" transform="translate(329.945 336.045)" fill="#fff"/>
        <rect id="Rectangle_24" data-name="Rectangle 24" width="5.221" height="5.221" transform="translate(340.388 336.045)" fill="#fff"/>
        <path id="Path_108" data-name="Path 108" d="M263.177,66.942v52.214H268.4V103.492H310.17V66.942Zm26.107,5.221h5.221v5.219h-5.221Zm-10.443,0h5.221v5.219h-5.221Zm26.107,5.221h-5.221V82.6H294.5v5.221h5.221V82.606h5.221v5.221h-5.221v5.221h5.221V98.27h-5.221V93.049H294.5V98.27h-5.221V93.049h-5.221V98.27H278.84V93.049h-5.221V98.27H268.4V93.049h5.221V87.827H268.4V82.606h5.221v5.219h5.221V82.6h-5.221V77.384H268.4V72.163h5.221v5.221h5.221V82.6h5.221V77.385h5.221V82.6H294.5V77.385h5.221V72.163h5.221Z" transform="translate(61.547 15.655)" fill="#fff"/>
        <rect id="Rectangle_25" data-name="Rectangle 25" width="5.221" height="5.221" transform="translate(345.608 98.258)" fill="#fff"/>
        <rect id="Rectangle_26" data-name="Rectangle 26" width="5.221" height="5.221" transform="translate(340.388 103.48)" fill="#fff"/>
        <rect id="Rectangle_27" data-name="Rectangle 27" width="5.221" height="5.221" transform="translate(350.83 103.48)" fill="#fff"/>
        <path id="Path_109" data-name="Path 109" d="M98.762,170.589l3.773,7.645,8.437,1.225-6.105,5.951,1.441,8.4-7.546-3.967-7.545,3.967,1.441-8.4-6.105-5.951,8.437-1.225Z" transform="translate(20.241 39.894)" fill="#fff"/>
        <path id="Path_110" data-name="Path 110" d="M183.974,253.15l6.48,13.13,14.488,2.105L194.458,278.6l2.475,14.43-12.959-6.812-12.959,6.812,2.475-14.43-10.484-10.22,14.488-2.105Z" transform="translate(38.121 59.202)" fill="#fff"/>
        <path id="Path_111" data-name="Path 111" d="M273.352,168.992l4.414,8.942,9.867,1.434-7.14,6.96,1.687,9.829-8.827-4.641-8.826,4.641,1.685-9.829-7.14-6.96,9.868-1.434Z" transform="translate(60.587 39.521)" fill="#fff"/>
        <path id="Path_112" data-name="Path 112" d="M42.35,23.784l4.135,8.379,9.247,1.344-6.69,6.522,1.579,9.21L42.35,44.89,34.08,49.239l1.579-9.21-6.691-6.522,9.247-1.344Z" transform="translate(6.775 5.562)" fill="#fff"/>
        <path id="Path_113" data-name="Path 113" d="M327.949,313.187l4.136,8.379,9.247,1.344-6.691,6.522,1.579,9.21-8.271-4.348-8.271,4.348,1.581-9.21-6.691-6.522,9.247-1.344Z" transform="translate(73.566 73.243)" fill="#fff"/>
        <path id="Path_114" data-name="Path 114" d="M329.215,23.137l4.135,8.379L342.6,32.86l-6.691,6.522,1.579,9.21-8.271-4.348-8.271,4.348,1.579-9.21-6.691-6.522,9.247-1.344Z" transform="translate(73.861 5.411)" fill="#fff"/>
        <path id="Path_115" data-name="Path 115" d="M39.171,314.065l4.136,8.379,9.247,1.344-6.691,6.522,1.579,9.21-8.271-4.348L30.9,339.52l1.579-9.21-6.69-6.522,9.247-1.344Z" transform="translate(6.031 73.448)" fill="#fff"/>
        <path id="Path_116" data-name="Path 116" d="M161.566,91.45a5.677,5.677,0,0,0-5.678,5.678,5.321,5.321,0,0,0,.051.712,5.674,5.674,0,0,0,11.283-.228c.014-.16.025-.322.025-.485a5.678,5.678,0,0,0-5.68-5.678Zm-2.844,3.537,1.16,1.158a1.92,1.92,0,0,0-.206.5h-1.633a3.537,3.537,0,0,1,.679-1.658Zm-.685,2.641h1.644a1.943,1.943,0,0,0,.207.495l-1.161,1.16a3.549,3.549,0,0,1-.69-1.654Zm3.037,3.027a3.536,3.536,0,0,1-1.646-.681l1.154-1.156a1.918,1.918,0,0,0,.491.2Zm0-5.417a2.042,2.042,0,0,0-.5.21l-1.154-1.156a3.511,3.511,0,0,1,1.656-.686v1.632Zm.983-1.632a3.515,3.515,0,0,1,1.66.687l-1.155,1.155a2.019,2.019,0,0,0-.5-.21V93.606Zm0,7.05V99.018a2,2,0,0,0,.495-.2l1.154,1.158a3.518,3.518,0,0,1-1.648.681Zm2.353-1.37-1.164-1.164a2.028,2.028,0,0,0,.211-.493h1.631a3.53,3.53,0,0,1-.678,1.657Zm-.953-2.64a1.924,1.924,0,0,0-.2-.5l1.158-1.158a3.517,3.517,0,0,1,.68,1.659h-1.634Z" transform="translate(36.456 21.387)" fill="#fff"/>
        <path id="Path_117" data-name="Path 117" d="M205.836,98.3a6.949,6.949,0,0,1,3.367-5.946L195.826,86.43h-8.392a.905.905,0,0,0-.9.906v1.189a.905.905,0,0,0,.9.906h.6v.824h-1.522a1.112,1.112,0,0,0-1.056.762l-.122.363c-2.771-.224-4.089,1.9-5.474,1.9l-.935-1.126a2.647,2.647,0,0,0-2.281-.946,3.675,3.675,0,0,0-.833.175l-.525,1.9s-4.763-.277-10.953-.055A6.934,6.934,0,0,1,166.55,98.3c0,.2.032,4.4.032,4.4h40.836a6.9,6.9,0,0,1-1.521-3.528A7,7,0,0,1,205.836,98.3Z" transform="translate(38.43 20.213)" fill="#fff"/>
        <path id="Path_118" data-name="Path 118" d="M157,96.854a6.915,6.915,0,0,1,1.45-4.234,38.938,38.938,0,0,0-12.774,3.61c0,.973,4.274.016,4.274,2.024h-3.3a.6.6,0,0,0-.6.6v1.8a.6.6,0,0,0,.6.6h8.244a.6.6,0,0,0,.6-.6V97.879h1.589c-.007-.051-.02-.1-.027-.153A6.67,6.67,0,0,1,157,96.854Z" transform="translate(34.068 21.66)" fill="#fff"/>
        <path id="Path_119" data-name="Path 119" d="M212.6,85.518h-8.81a1.5,1.5,0,0,0-1.5,1.5v1.965a1.5,1.5,0,0,0,.439,1.06l1.534,1.533a6.96,6.96,0,0,1,6.615,6.939c0,.092-.01.185-.014.276h3.235V87.018a1.5,1.5,0,0,0-1.5-1.5Z" transform="translate(47.307 19.999)" fill="#fff"/>
        <path id="Path_120" data-name="Path 120" d="M204.883,91.45a5.677,5.677,0,0,0-5.678,5.678,5.316,5.316,0,0,0,.051.712,5.675,5.675,0,0,0,11.284-.228c.014-.16.023-.322.023-.485a5.678,5.678,0,0,0-5.68-5.678Zm-2.843,3.537,1.158,1.158a1.955,1.955,0,0,0-.206.5h-1.634a3.54,3.54,0,0,1,.682-1.658Zm-.686,2.641H203a1.942,1.942,0,0,0,.207.495l-1.161,1.16a3.55,3.55,0,0,1-.69-1.654Zm3.037,3.027a3.533,3.533,0,0,1-1.646-.681l1.154-1.154a2,2,0,0,0,.492.2v1.637Zm0-5.417a2.015,2.015,0,0,0-.5.21l-1.154-1.156a3.506,3.506,0,0,1,1.657-.686v1.633h0Zm.983-1.632a3.514,3.514,0,0,1,1.66.687l-1.154,1.155a2.019,2.019,0,0,0-.5-.21l0-1.632Zm0,7.05V99.018a2.014,2.014,0,0,0,.5-.2l1.154,1.158a3.528,3.528,0,0,1-1.65.681Zm2.354-1.37-1.164-1.164a2.029,2.029,0,0,0,.212-.493h1.631a3.555,3.555,0,0,1-.678,1.657Zm-.953-2.64a1.961,1.961,0,0,0-.205-.5l1.158-1.158a3.506,3.506,0,0,1,.68,1.659h-1.632Z" transform="translate(46.587 21.387)" fill="#fff"/>
        <path id="Path_121" data-name="Path 121" d="M56.566,272.45a5.677,5.677,0,0,0-5.678,5.678,5.32,5.32,0,0,0,.051.712,5.674,5.674,0,0,0,11.283-.228c.014-.16.025-.322.025-.485a5.678,5.678,0,0,0-5.68-5.678Zm-2.844,3.537,1.16,1.158a1.92,1.92,0,0,0-.206.5H53.042a3.537,3.537,0,0,1,.68-1.657Zm-.685,2.641h1.644a1.944,1.944,0,0,0,.207.495l-1.161,1.16a3.549,3.549,0,0,1-.69-1.654Zm3.037,3.027a3.536,3.536,0,0,1-1.646-.681l1.154-1.156a1.916,1.916,0,0,0,.491.2Zm0-5.417a2.041,2.041,0,0,0-.5.21l-1.154-1.156a3.511,3.511,0,0,1,1.656-.686v1.632Zm.983-1.632a3.515,3.515,0,0,1,1.66.687l-1.155,1.155a2.02,2.02,0,0,0-.5-.21v-1.632Zm0,7.05v-1.637a2,2,0,0,0,.495-.2l1.154,1.158a3.518,3.518,0,0,1-1.648.681Zm2.353-1.37-1.164-1.164a2.028,2.028,0,0,0,.211-.493H60.09a3.53,3.53,0,0,1-.678,1.657Zm-.953-2.64a1.922,1.922,0,0,0-.2-.5l1.158-1.158a3.516,3.516,0,0,1,.68,1.659H58.459Z" transform="translate(11.901 63.716)" fill="#fff"/>
        <path id="Path_122" data-name="Path 122" d="M100.836,279.3a6.949,6.949,0,0,1,3.367-5.946L90.826,267.43H82.434a.9.9,0,0,0-.9.905v1.189a.905.905,0,0,0,.9.906h.6v.824H81.507a1.112,1.112,0,0,0-1.056.762l-.122.363c-2.771-.224-4.089,1.9-5.474,1.9l-.935-1.126a2.647,2.647,0,0,0-2.281-.946,3.671,3.671,0,0,0-.833.175l-.525,1.9s-4.763-.277-10.953-.055A6.934,6.934,0,0,1,61.55,279.3c0,.2.032,4.4.032,4.4h40.836a6.9,6.9,0,0,1-1.521-3.528A7,7,0,0,1,100.836,279.3Z" transform="translate(13.875 62.542)" fill="#fff"/>
        <path id="Path_123" data-name="Path 123" d="M52,277.853a6.915,6.915,0,0,1,1.45-4.234,38.938,38.938,0,0,0-12.774,3.61c0,.973,4.274.016,4.274,2.024h-3.3a.6.6,0,0,0-.6.6v1.8a.6.6,0,0,0,.6.6h8.244a.6.6,0,0,0,.6-.6v-2.773h1.589c-.007-.051-.02-.1-.027-.153a6.67,6.67,0,0,1-.061-.873Z" transform="translate(9.512 63.989)" fill="#fff"/>
        <path id="Path_124" data-name="Path 124" d="M107.6,266.518h-8.81a1.5,1.5,0,0,0-1.5,1.5v1.965a1.5,1.5,0,0,0,.439,1.06l1.534,1.533a6.96,6.96,0,0,1,6.615,6.939c0,.092-.01.185-.014.276h3.235V268.018a1.5,1.5,0,0,0-1.5-1.5Z" transform="translate(22.751 62.328)" fill="#fff"/>
        <path id="Path_125" data-name="Path 125" d="M99.883,272.45a5.677,5.677,0,0,0-5.678,5.678,5.32,5.32,0,0,0,.051.712,5.675,5.675,0,0,0,11.284-.228c.014-.16.023-.322.023-.485a5.678,5.678,0,0,0-5.68-5.678Zm-2.843,3.537,1.158,1.158a1.955,1.955,0,0,0-.206.5H96.359a3.541,3.541,0,0,1,.681-1.657Zm-.686,2.641H98a1.944,1.944,0,0,0,.207.495l-1.161,1.16a3.551,3.551,0,0,1-.69-1.654Zm3.037,3.027a3.533,3.533,0,0,1-1.646-.681l1.154-1.154a2,2,0,0,0,.492.2v1.637Zm0-5.417a2.015,2.015,0,0,0-.5.21l-1.154-1.156a3.506,3.506,0,0,1,1.657-.686v1.633Zm.983-1.632a3.514,3.514,0,0,1,1.66.687l-1.154,1.155a2.023,2.023,0,0,0-.5-.21l0-1.632Zm0,7.05v-1.637a2.012,2.012,0,0,0,.5-.2l1.154,1.158a3.527,3.527,0,0,1-1.65.681Zm2.354-1.37-1.164-1.164a2.03,2.03,0,0,0,.212-.493h1.631a3.555,3.555,0,0,1-.678,1.657Zm-.953-2.64a1.96,1.96,0,0,0-.205-.5l1.158-1.158a3.506,3.506,0,0,1,.68,1.659h-1.632Z" transform="translate(22.031 63.716)" fill="#fff"/>
      </g>
      <g id="Artboard_1-2" data-name="Artboard 1" transform="translate(421 3241)" opacity="0.12" clip-path="url(#clip-path-2)">
        <path id="Path_126" data-name="Path 126" d="M-1.192,157.768a30.252,30.252,0,0,0-16.6,16.6,30.256,30.256,0,0,0,0,22.694,30.252,30.252,0,0,0,16.6,16.6,30.267,30.267,0,0,0,22.694,0,29.95,29.95,0,0,0,9.976-6.624,29.922,29.922,0,0,0,6.624-9.976,30.276,30.276,0,0,0,0-22.694,30.252,30.252,0,0,0-16.6-16.6,30.284,30.284,0,0,0-22.694,0Zm-11.271,40.641a20.7,20.7,0,0,1-3.976-3.2,28.427,28.427,0,0,1-.917-15.841,25.3,25.3,0,0,1,1.932-3.2c.224-.316.432-.645.672-.952l6.8,4.027v.171a52.419,52.419,0,0,0,1.094,10.874c0,.017.005.026.008.041l-5.277,8.275a3.8,3.8,0,0,1-.34-.192ZM7.769,212.4a25.9,25.9,0,0,0,3.623,1.517,28.28,28.28,0,0,1-15.3-3.706L7.5,212.242C7.587,212.3,7.676,212.351,7.769,212.4Zm-.042-2.059-13.461-2.4a42.03,42.03,0,0,1-4.209-6.1c-.31-.55-.656-1.084-.918-1.658l5.272-8.267c.117.029.247.06.394.1a87.509,87.509,0,0,0,10.035,2c.2.027.362.052.5.067l6.32,10.927q-1.645,2.312-3.339,4.591c-.188.253-.388.5-.6.736Zm22.4-4.655a28.045,28.045,0,0,1-3.4,2.9A25.843,25.843,0,0,0,25.7,203.95l6.743-12.58a31.494,31.494,0,0,0,5.312-2.994,2.375,2.375,0,0,0,.538-.515,28.1,28.1,0,0,1-8.175,17.823Zm-.3-16.314c.251.478.5.962.747,1.452l-6.513,12.15c-.037.008-.073.017-.111.022A59.414,59.414,0,0,1,13.3,204.017L6.8,192.778q1.518-2.818,3.008-5.651c.675-1.28,1.338-2.568,2-3.856L25.26,181.89a75.084,75.084,0,0,1,4.565,7.48ZM27.1,174.959c-.638,1.686-1.322,3.354-2,5.026l-13.1,1.346c-.157-.207-.319-.41-.49-.6q-2.321-2.628-4.66-5.241c.014-.018.028-.031.042-.047L5,173.556l3.648-10.984a5.108,5.108,0,0,1,.761-.15c1.983-.2,3.969-.43,5.957-.545a28.978,28.978,0,0,1,3.68-.02l9.026,10.174c-.311.982-.614,1.967-.976,2.927Zm3.028-9.213a28.117,28.117,0,0,1,5.782,8.372,28.661,28.661,0,0,0-5.386-2.894c-.295-.122-.6-.229-.9-.335L20.73,160.875a11.736,11.736,0,0,0,.107-1.3,28.1,28.1,0,0,1,9.286,6.174Zm-29.012-6.7c.035.026.052.048.072.053a22.587,22.587,0,0,1,5.62,2.961L3.394,172.325a.367.367,0,0,0-.051.018c-.7.288-1.408.547-2.095.859a60.086,60.086,0,0,0-8.186,4.417l-6.726-3.979a2.032,2.032,0,0,1,.117-.613c.452-1.2.9-2.413,1.407-3.592a26.93,26.93,0,0,1,1.331-2.643c.32-.353.652-.7.993-1.045a28.073,28.073,0,0,1,10.988-6.8C1.153,158.977,1.131,159.011,1.111,159.046Z" transform="translate(-4.677 36.38)" fill="#fff"/>
        <path id="Path_127" data-name="Path 127" d="M359.955,157.768a30.277,30.277,0,1,0,11.347-2.207,30.277,30.277,0,0,0-11.347,2.207ZM348.684,198.41a20.7,20.7,0,0,1-3.976-3.2,28.427,28.427,0,0,1-.917-15.841,25.3,25.3,0,0,1,1.932-3.2c.224-.316.432-.645.672-.952l6.8,4.027v.171a52.424,52.424,0,0,0,1.094,10.874c0,.017.005.026.008.041l-5.277,8.275a3.841,3.841,0,0,1-.34-.192ZM368.916,212.4a25.893,25.893,0,0,0,3.623,1.517,28.279,28.279,0,0,1-15.3-3.706l11.407,2.033c.088.056.177.109.27.157Zm-.042-2.059-13.461-2.4a42.029,42.029,0,0,1-4.209-6.1c-.31-.55-.656-1.084-.918-1.658l5.272-8.267c.117.029.247.06.394.1a87.5,87.5,0,0,0,10.035,2c.2.027.363.052.5.067l6.32,10.927q-1.645,2.312-3.339,4.591c-.188.253-.388.5-.6.737Zm22.4-4.655a28.043,28.043,0,0,1-3.4,2.9,25.834,25.834,0,0,0-1.019-4.636l6.743-12.58a31.5,31.5,0,0,0,5.312-2.994,2.376,2.376,0,0,0,.538-.515,28.1,28.1,0,0,1-8.175,17.823Zm-.3-16.315c.251.478.5.962.747,1.452l-6.513,12.15c-.037.008-.073.017-.111.022a59.414,59.414,0,0,1-10.648,1.024l-6.5-11.239q1.518-2.818,3.008-5.651c.675-1.28,1.338-2.568,2-3.856l13.452-1.382a75.087,75.087,0,0,1,4.565,7.481Zm-2.729-14.411c-.638,1.686-1.322,3.354-2,5.026l-13.1,1.346c-.157-.207-.319-.41-.49-.6q-2.321-2.628-4.66-5.241c.014-.018.028-.031.042-.047l-1.884-1.882,3.648-10.984a5.108,5.108,0,0,1,.761-.15c1.983-.2,3.969-.43,5.957-.545a28.972,28.972,0,0,1,3.68-.02l9.026,10.174c-.311.982-.615,1.967-.976,2.927Zm3.028-9.213a28.116,28.116,0,0,1,5.781,8.372,28.661,28.661,0,0,0-5.386-2.894c-.295-.122-.6-.229-.9-.335l-8.885-10.014a11.74,11.74,0,0,0,.107-1.3,28.1,28.1,0,0,1,9.286,6.174Zm-29.012-6.7c.035.026.052.048.072.053a22.587,22.587,0,0,1,5.62,2.961l-3.408,10.264a.369.369,0,0,0-.051.018c-.7.288-1.408.547-2.095.859a60.084,60.084,0,0,0-8.186,4.417l-6.726-3.979a2.029,2.029,0,0,1,.117-.613c.452-1.2.9-2.413,1.407-3.592a26.924,26.924,0,0,1,1.331-2.643c.32-.353.652-.7.993-1.045a28.073,28.073,0,0,1,10.988-6.8c-.02.033-.043.067-.062.1Z" transform="translate(79.752 36.38)" fill="#fff"/>
        <path id="Path_128" data-name="Path 128" d="M194.009,343.36a57.083,57.083,0,0,1,8.821-.676c1.412,0,2.825.052,4.2.155a6.633,6.633,0,0,1,5.965,6.25,65.866,65.866,0,0,1-.486,13.651Zm-35.951,37.649a65.87,65.87,0,0,0-.486,13.651,6.634,6.634,0,0,0,5.965,6.25c1.372.1,2.783.155,4.2.155h0a57.107,57.107,0,0,0,8.819-.675Zm53.757-14.383A46.951,46.951,0,0,1,201.124,388.4c-.024.027-.049.052-.074.078a43.272,43.272,0,0,1-20.787,11.192l-21.515-22.545a46.951,46.951,0,0,1,10.691-21.771q.036-.04.074-.077A43.271,43.271,0,0,1,190.3,344.082Zm-15,.127-2.223-2.33,1.73-1.812a1.685,1.685,0,0,0,0-2.3,1.505,1.505,0,0,0-2.2,0l-1.73,1.812-2.224-2.33a1.505,1.505,0,0,0-2.2,0,1.685,1.685,0,0,0,0,2.3l2.223,2.33-2.542,2.663-2.224-2.33a1.505,1.505,0,0,0-2.2,0,1.685,1.685,0,0,0,0,2.3l2.223,2.33-2.542,2.663-2.224-2.329a1.505,1.505,0,0,0-2.2,0,1.685,1.685,0,0,0,0,2.3l2.223,2.33-2.542,2.663-2.224-2.33a1.505,1.505,0,0,0-2.2,0,1.685,1.685,0,0,0,0,2.3l2.223,2.33-1.73,1.812a1.685,1.685,0,0,0,0,2.3,1.505,1.505,0,0,0,2.2,0l1.73-1.812,2.223,2.33a1.506,1.506,0,0,0,2.2,0,1.685,1.685,0,0,0,0-2.3l-2.223-2.33,2.542-2.663,2.223,2.33a1.506,1.506,0,0,0,2.2,0,1.685,1.685,0,0,0,0-2.3l-2.224-2.33,2.542-2.663,2.223,2.33a1.506,1.506,0,0,0,2.2,0,1.684,1.684,0,0,0,0-2.3l-2.223-2.33,2.542-2.663,2.223,2.33a1.506,1.506,0,0,0,2.2,0,1.687,1.687,0,0,0,0-2.3Z" transform="translate(36.814 93.705)" fill="#fff"/>
        <path id="Path_129" data-name="Path 129" d="M191.231,165.576a57.072,57.072,0,0,1,8.82-.675c1.412,0,2.825.052,4.2.155a6.633,6.633,0,0,1,5.965,6.25,65.869,65.869,0,0,1-.486,13.651ZM155.28,203.225a65.867,65.867,0,0,0-.486,13.651,6.633,6.633,0,0,0,5.965,6.25c1.372.1,2.783.155,4.2.155h0a57.083,57.083,0,0,0,8.819-.675Zm53.757-14.383a46.953,46.953,0,0,1-10.691,21.771q-.036.04-.074.077a43.272,43.272,0,0,1-20.787,11.192L155.97,199.338a46.952,46.952,0,0,1,10.691-21.771q.036-.04.074-.077A43.273,43.273,0,0,1,187.523,166.3Zm-15,.127-2.223-2.33,1.73-1.813a1.685,1.685,0,0,0,0-2.3,1.505,1.505,0,0,0-2.2,0l-1.73,1.812-2.224-2.33a1.505,1.505,0,0,0-2.2,0,1.685,1.685,0,0,0,0,2.3l2.223,2.33-2.542,2.663-2.224-2.33a1.505,1.505,0,0,0-2.2,0,1.685,1.685,0,0,0,0,2.3l2.223,2.33-2.542,2.663-2.223-2.33a1.505,1.505,0,0,0-2.2,0,1.685,1.685,0,0,0,0,2.3l2.223,2.33-2.542,2.663-2.224-2.33a1.505,1.505,0,0,0-2.2,0,1.685,1.685,0,0,0,0,2.3l2.223,2.33-1.73,1.812a1.685,1.685,0,0,0,0,2.3,1.506,1.506,0,0,0,2.2,0l1.73-1.812,2.224,2.33a1.505,1.505,0,0,0,2.2,0,1.684,1.684,0,0,0,0-2.3l-2.223-2.33,2.542-2.663,2.223,2.33a1.505,1.505,0,0,0,2.2,0,1.685,1.685,0,0,0,0-2.3l-2.224-2.33,2.542-2.663,2.224,2.33a1.505,1.505,0,0,0,2.2,0,1.684,1.684,0,0,0,0-2.3l-2.223-2.33,2.542-2.663,2.223,2.33a1.505,1.505,0,0,0,2.2,0,1.687,1.687,0,0,0,0-2.3Z" transform="translate(36.165 38.564)" fill="#fff"/>
        <path id="Path_130" data-name="Path 130" d="M194.01-29.324a57.079,57.079,0,0,1,8.82-.676c1.412,0,2.825.052,4.2.155a6.634,6.634,0,0,1,5.965,6.25A65.867,65.867,0,0,1,212.5-9.944ZM158.057,8.325a65.867,65.867,0,0,0-.486,13.651,6.634,6.634,0,0,0,5.965,6.25c1.372.1,2.783.155,4.2.155h0a57.1,57.1,0,0,0,8.819-.675ZM211.815-6.058a46.952,46.952,0,0,1-10.691,21.771q-.036.04-.074.077a43.27,43.27,0,0,1-20.787,11.192L158.747,4.438a46.952,46.952,0,0,1,10.691-21.771c.024-.027.048-.052.074-.078A43.272,43.272,0,0,1,190.3-28.6Zm-15,.127-2.223-2.33,1.73-1.812a1.685,1.685,0,0,0,0-2.3,1.505,1.505,0,0,0-1.1-.477,1.505,1.505,0,0,0-1.1.477l-1.73,1.812-2.224-2.33a1.505,1.505,0,0,0-1.1-.477,1.505,1.505,0,0,0-1.1.477,1.685,1.685,0,0,0,0,2.3l2.223,2.33L187.651-5.6l-2.224-2.33a1.505,1.505,0,0,0-1.1-.477,1.505,1.505,0,0,0-1.1.477,1.685,1.685,0,0,0,0,2.3l2.223,2.33L182.91-.63l-2.224-2.33a1.505,1.505,0,0,0-1.1-.477,1.505,1.505,0,0,0-1.1.477,1.685,1.685,0,0,0,0,2.3l2.223,2.33-2.542,2.663-2.224-2.33a1.505,1.505,0,0,0-2.2,0,1.685,1.685,0,0,0,0,2.3l2.223,2.33-1.73,1.812a1.685,1.685,0,0,0,0,2.3,1.506,1.506,0,0,0,2.2,0l1.73-1.812,2.223,2.33a1.506,1.506,0,0,0,2.2,0,1.685,1.685,0,0,0,0-2.3l-2.222-2.33,2.542-2.663,2.223,2.33a1.506,1.506,0,0,0,2.2,0,1.685,1.685,0,0,0,0-2.3l-2.224-2.33L187.653-.99l2.223,2.33a1.506,1.506,0,0,0,2.2,0,1.684,1.684,0,0,0,0-2.3l-2.223-2.33,2.542-2.663,2.223,2.33a1.516,1.516,0,0,0,1.1.477,1.516,1.516,0,0,0,1.1-.477,1.687,1.687,0,0,0,0-2.3Z" transform="translate(36.814 -7.016)" fill="#fff"/>
        <path id="Path_131" data-name="Path 131" d="M69.048,118.182a2.18,2.18,0,0,1-1.661-.75C64.036,113.5,54.719,95.3,58.522,83.762A30.55,30.55,0,0,1,82.373,63.681c12.775-2.339,25.543,2.559,35.042,13.438a1.906,1.906,0,0,1-.3,2.8,2.172,2.172,0,0,1-.67.346L97.33,86.236a2.162,2.162,0,0,1-2.69-1.261,1.968,1.968,0,0,1,1.345-2.521h0l16.081-5.025c-8.2-8.16-18.577-11.742-28.883-9.849a26.4,26.4,0,0,0-20.6,17.348c-3.29,10.015,5.554,27,8.123,30.024a1.907,1.907,0,0,1-.338,2.8,2.215,2.215,0,0,1-1.32.433Z" transform="translate(13.476 14.759)" fill="#fff"/>
        <path id="Path_132" data-name="Path 132" d="M97.017,114.535H67.284a1.994,1.994,0,1,1,0-3.98H94.893v-8.27a2.4,2.4,0,0,0-.656-1.638l-4.849-5.182a9.912,9.912,0,0,1,1.039-14.617,11.26,11.26,0,0,1,3.786-2.033A2.161,2.161,0,0,1,96.9,80.077a1.967,1.967,0,0,1-1.346,2.52,6.2,6.2,0,0,0-2.974,10.257l4.842,5.174a6.239,6.239,0,0,1,1.7,4.257v10.259a2.059,2.059,0,0,1-2.107,1.99Z" transform="translate(15.238 18.406)" fill="#fff"/>
        <path id="Path_133" data-name="Path 133" d="M104.929,112.266H90.062a1.994,1.994,0,1,1,0-3.98h13.9a12.753,12.753,0,0,0,3.094-7.961,12.493,12.493,0,0,0-2.6-7.338,20.088,20.088,0,0,1-8.017,1.367h-8.5a1.994,1.994,0,1,1,0-3.98h8.5c5.193,0,7.03-1.441,7.049-1.455a2.306,2.306,0,0,1,2.948.048,15.682,15.682,0,0,1,0,22.716,2.2,2.2,0,0,1-1.5.582Z" transform="translate(20.069 20.676)" fill="#fff"/>
        <path id="Path_134" data-name="Path 134" d="M106.247,98.821H91.381a1.994,1.994,0,1,1,0-3.98h14.866a1.994,1.994,0,1,1,0,3.98Z" transform="translate(20.874 22.179)" fill="#fff"/>
        <path id="Path_135" data-name="Path 135" d="M106.247,103.66H91.381a1.994,1.994,0,1,1,0-3.98h14.866a1.994,1.994,0,1,1,0,3.98Z" transform="translate(20.874 23.31)" fill="#fff"/>
        <path id="Path_136" data-name="Path 136" d="M98.266,111.893a2.061,2.061,0,0,1-2.124-1.99V91.991a2.128,2.128,0,0,1,4.248,0V109.9a2.061,2.061,0,0,1-2.124,1.991Z" transform="translate(22.484 21.048)" fill="#fff"/>
        <path id="Path_137" data-name="Path 137" d="M80.321,84.682A2.992,2.992,0,1,1,83.506,81.7a3.09,3.09,0,0,1-3.186,2.985Zm0-3.98a1,1,0,1,0,1.062,1,1.03,1.03,0,0,0-1.062-1Z" transform="translate(18.13 18.406)" fill="#fff"/>
        <path id="Path_138" data-name="Path 138" d="M84.624,103.231a2.992,2.992,0,1,1,3.186-2.985,3.09,3.09,0,0,1-3.186,2.985Zm0-3.98a1,1,0,1,0,1.062,1,1.03,1.03,0,0,0-1.062-.995Z" transform="translate(19.136 22.744)" fill="#fff"/>
        <path id="Path_139" data-name="Path 139" d="M254.713,255.427v52.214h5.221V291.977h41.771V255.427Zm26.107,5.221h5.221v5.219H280.82Zm-10.443,0H275.6v5.219h-5.221v-5.219Zm26.107,5.221h-5.221v5.219h-5.221v5.221h5.221v-5.219h5.221v5.221h-5.221v5.221h5.221v5.221h-5.221v-5.221h-5.221v5.221H280.82v-5.221H275.6v5.221h-5.221v-5.221h-5.221v5.221h-5.221v-5.221h5.221v-5.221h-5.221v-5.221h5.221v5.219h5.221v-5.221h-5.221v-5.219h-5.221v-5.221h5.221v5.221h5.221v5.219H275.6v-5.219h5.221v5.219h5.221v-5.219h5.221v-5.221h5.221Z" transform="translate(59.568 59.735)" fill="#fff"/>
        <rect id="Rectangle_29" data-name="Rectangle 29" width="5.221" height="5.221" transform="translate(335.166 330.823)" fill="#fff"/>
        <rect id="Rectangle_30" data-name="Rectangle 30" width="5.221" height="5.221" transform="translate(329.945 336.045)" fill="#fff"/>
        <rect id="Rectangle_31" data-name="Rectangle 31" width="5.221" height="5.221" transform="translate(340.388 336.045)" fill="#fff"/>
        <path id="Path_140" data-name="Path 140" d="M263.177,66.942v52.214H268.4V103.492H310.17V66.942Zm26.107,5.221h5.221v5.219h-5.221Zm-10.443,0h5.221v5.219h-5.221Zm26.107,5.221h-5.221V82.6H294.5v5.221h5.221V82.606h5.221v5.221h-5.221v5.221h5.221V98.27h-5.221V93.049H294.5V98.27h-5.221V93.049h-5.221V98.27H278.84V93.049h-5.221V98.27H268.4V93.049h5.221V87.827H268.4V82.606h5.221v5.219h5.221V82.6h-5.221V77.384H268.4V72.163h5.221v5.221h5.221V82.6h5.221V77.385h5.221V82.6H294.5V77.385h5.221V72.163h5.221Z" transform="translate(61.547 15.655)" fill="#fff"/>
        <rect id="Rectangle_32" data-name="Rectangle 32" width="5.221" height="5.221" transform="translate(345.608 98.258)" fill="#fff"/>
        <rect id="Rectangle_33" data-name="Rectangle 33" width="5.221" height="5.221" transform="translate(340.388 103.48)" fill="#fff"/>
        <rect id="Rectangle_34" data-name="Rectangle 34" width="5.221" height="5.221" transform="translate(350.83 103.48)" fill="#fff"/>
        <path id="Path_141" data-name="Path 141" d="M98.762,170.589l3.773,7.645,8.437,1.225-6.105,5.951,1.441,8.4-7.546-3.967-7.545,3.967,1.441-8.4-6.105-5.951,8.437-1.225Z" transform="translate(20.241 39.894)" fill="#fff"/>
        <path id="Path_142" data-name="Path 142" d="M183.974,253.15l6.48,13.13,14.488,2.105L194.458,278.6l2.475,14.43-12.959-6.812-12.959,6.812,2.475-14.43-10.484-10.22,14.488-2.105Z" transform="translate(38.121 59.202)" fill="#fff"/>
        <path id="Path_143" data-name="Path 143" d="M273.352,168.992l4.414,8.942,9.867,1.434-7.14,6.96,1.687,9.829-8.827-4.641-8.826,4.641,1.685-9.829-7.14-6.96,9.868-1.434Z" transform="translate(60.587 39.521)" fill="#fff"/>
        <path id="Path_144" data-name="Path 144" d="M42.35,23.784l4.135,8.379,9.247,1.344-6.69,6.522,1.579,9.21L42.35,44.89,34.08,49.239l1.579-9.21-6.691-6.522,9.247-1.344Z" transform="translate(6.775 5.562)" fill="#fff"/>
        <path id="Path_145" data-name="Path 145" d="M327.949,313.187l4.136,8.379,9.247,1.344-6.691,6.522,1.579,9.21-8.271-4.348-8.271,4.348,1.581-9.21-6.691-6.522,9.247-1.344Z" transform="translate(73.566 73.243)" fill="#fff"/>
        <path id="Path_146" data-name="Path 146" d="M329.215,23.137l4.135,8.379L342.6,32.86l-6.691,6.522,1.579,9.21-8.271-4.348-8.271,4.348,1.579-9.21-6.691-6.522,9.247-1.344Z" transform="translate(73.861 5.411)" fill="#fff"/>
        <path id="Path_147" data-name="Path 147" d="M39.171,314.065l4.136,8.379,9.247,1.344-6.691,6.522,1.579,9.21-8.271-4.348L30.9,339.52l1.579-9.21-6.69-6.522,9.247-1.344Z" transform="translate(6.031 73.448)" fill="#fff"/>
        <path id="Path_148" data-name="Path 148" d="M161.566,91.45a5.677,5.677,0,0,0-5.678,5.678,5.321,5.321,0,0,0,.051.712,5.674,5.674,0,0,0,11.283-.228c.014-.16.025-.322.025-.485a5.678,5.678,0,0,0-5.68-5.678Zm-2.844,3.537,1.16,1.158a1.92,1.92,0,0,0-.206.5h-1.633a3.537,3.537,0,0,1,.679-1.658Zm-.685,2.641h1.644a1.943,1.943,0,0,0,.207.495l-1.161,1.16a3.549,3.549,0,0,1-.69-1.654Zm3.037,3.027a3.536,3.536,0,0,1-1.646-.681l1.154-1.156a1.918,1.918,0,0,0,.491.2Zm0-5.417a2.042,2.042,0,0,0-.5.21l-1.154-1.156a3.511,3.511,0,0,1,1.656-.686v1.632Zm.983-1.632a3.515,3.515,0,0,1,1.66.687l-1.155,1.155a2.019,2.019,0,0,0-.5-.21V93.606Zm0,7.05V99.018a2,2,0,0,0,.495-.2l1.154,1.158a3.518,3.518,0,0,1-1.648.681Zm2.353-1.37-1.164-1.164a2.028,2.028,0,0,0,.211-.493h1.631a3.53,3.53,0,0,1-.678,1.657Zm-.953-2.64a1.924,1.924,0,0,0-.2-.5l1.158-1.158a3.517,3.517,0,0,1,.68,1.659h-1.634Z" transform="translate(36.456 21.387)" fill="#fff"/>
        <path id="Path_149" data-name="Path 149" d="M205.836,98.3a6.949,6.949,0,0,1,3.367-5.946L195.826,86.43h-8.392a.905.905,0,0,0-.9.906v1.189a.905.905,0,0,0,.9.906h.6v.824h-1.522a1.112,1.112,0,0,0-1.056.762l-.122.363c-2.771-.224-4.089,1.9-5.474,1.9l-.935-1.126a2.647,2.647,0,0,0-2.281-.946,3.675,3.675,0,0,0-.833.175l-.525,1.9s-4.763-.277-10.953-.055A6.934,6.934,0,0,1,166.55,98.3c0,.2.032,4.4.032,4.4h40.836a6.9,6.9,0,0,1-1.521-3.528A7,7,0,0,1,205.836,98.3Z" transform="translate(38.43 20.213)" fill="#fff"/>
        <path id="Path_150" data-name="Path 150" d="M157,96.854a6.915,6.915,0,0,1,1.45-4.234,38.938,38.938,0,0,0-12.774,3.61c0,.973,4.274.016,4.274,2.024h-3.3a.6.6,0,0,0-.6.6v1.8a.6.6,0,0,0,.6.6h8.244a.6.6,0,0,0,.6-.6V97.879h1.589c-.007-.051-.02-.1-.027-.153A6.67,6.67,0,0,1,157,96.854Z" transform="translate(34.068 21.66)" fill="#fff"/>
        <path id="Path_151" data-name="Path 151" d="M212.6,85.518h-8.81a1.5,1.5,0,0,0-1.5,1.5v1.965a1.5,1.5,0,0,0,.439,1.06l1.534,1.533a6.96,6.96,0,0,1,6.615,6.939c0,.092-.01.185-.014.276h3.235V87.018a1.5,1.5,0,0,0-1.5-1.5Z" transform="translate(47.307 19.999)" fill="#fff"/>
        <path id="Path_152" data-name="Path 152" d="M204.883,91.45a5.677,5.677,0,0,0-5.678,5.678,5.316,5.316,0,0,0,.051.712,5.675,5.675,0,0,0,11.284-.228c.014-.16.023-.322.023-.485a5.678,5.678,0,0,0-5.68-5.678Zm-2.843,3.537,1.158,1.158a1.955,1.955,0,0,0-.206.5h-1.634a3.54,3.54,0,0,1,.682-1.658Zm-.686,2.641H203a1.942,1.942,0,0,0,.207.495l-1.161,1.16a3.55,3.55,0,0,1-.69-1.654Zm3.037,3.027a3.533,3.533,0,0,1-1.646-.681l1.154-1.154a2,2,0,0,0,.492.2v1.637Zm0-5.417a2.015,2.015,0,0,0-.5.21l-1.154-1.156a3.506,3.506,0,0,1,1.657-.686v1.633h0Zm.983-1.632a3.514,3.514,0,0,1,1.66.687l-1.154,1.155a2.019,2.019,0,0,0-.5-.21l0-1.632Zm0,7.05V99.018a2.014,2.014,0,0,0,.5-.2l1.154,1.158a3.528,3.528,0,0,1-1.65.681Zm2.354-1.37-1.164-1.164a2.029,2.029,0,0,0,.212-.493h1.631a3.555,3.555,0,0,1-.678,1.657Zm-.953-2.64a1.961,1.961,0,0,0-.205-.5l1.158-1.158a3.506,3.506,0,0,1,.68,1.659h-1.632Z" transform="translate(46.587 21.387)" fill="#fff"/>
        <path id="Path_153" data-name="Path 153" d="M56.566,272.45a5.677,5.677,0,0,0-5.678,5.678,5.32,5.32,0,0,0,.051.712,5.674,5.674,0,0,0,11.283-.228c.014-.16.025-.322.025-.485a5.678,5.678,0,0,0-5.68-5.678Zm-2.844,3.537,1.16,1.158a1.92,1.92,0,0,0-.206.5H53.042a3.537,3.537,0,0,1,.68-1.657Zm-.685,2.641h1.644a1.944,1.944,0,0,0,.207.495l-1.161,1.16a3.549,3.549,0,0,1-.69-1.654Zm3.037,3.027a3.536,3.536,0,0,1-1.646-.681l1.154-1.156a1.916,1.916,0,0,0,.491.2Zm0-5.417a2.041,2.041,0,0,0-.5.21l-1.154-1.156a3.511,3.511,0,0,1,1.656-.686v1.632Zm.983-1.632a3.515,3.515,0,0,1,1.66.687l-1.155,1.155a2.02,2.02,0,0,0-.5-.21v-1.632Zm0,7.05v-1.637a2,2,0,0,0,.495-.2l1.154,1.158a3.518,3.518,0,0,1-1.648.681Zm2.353-1.37-1.164-1.164a2.028,2.028,0,0,0,.211-.493H60.09a3.53,3.53,0,0,1-.678,1.657Zm-.953-2.64a1.922,1.922,0,0,0-.2-.5l1.158-1.158a3.516,3.516,0,0,1,.68,1.659H58.459Z" transform="translate(11.901 63.716)" fill="#fff"/>
        <path id="Path_154" data-name="Path 154" d="M100.836,279.3a6.949,6.949,0,0,1,3.367-5.946L90.826,267.43H82.434a.9.9,0,0,0-.9.905v1.189a.905.905,0,0,0,.9.906h.6v.824H81.507a1.112,1.112,0,0,0-1.056.762l-.122.363c-2.771-.224-4.089,1.9-5.474,1.9l-.935-1.126a2.647,2.647,0,0,0-2.281-.946,3.671,3.671,0,0,0-.833.175l-.525,1.9s-4.763-.277-10.953-.055A6.934,6.934,0,0,1,61.55,279.3c0,.2.032,4.4.032,4.4h40.836a6.9,6.9,0,0,1-1.521-3.528A7,7,0,0,1,100.836,279.3Z" transform="translate(13.875 62.542)" fill="#fff"/>
        <path id="Path_155" data-name="Path 155" d="M52,277.853a6.915,6.915,0,0,1,1.45-4.234,38.938,38.938,0,0,0-12.774,3.61c0,.973,4.274.016,4.274,2.024h-3.3a.6.6,0,0,0-.6.6v1.8a.6.6,0,0,0,.6.6h8.244a.6.6,0,0,0,.6-.6v-2.773h1.589c-.007-.051-.02-.1-.027-.153a6.67,6.67,0,0,1-.061-.873Z" transform="translate(9.512 63.989)" fill="#fff"/>
        <path id="Path_156" data-name="Path 156" d="M107.6,266.518h-8.81a1.5,1.5,0,0,0-1.5,1.5v1.965a1.5,1.5,0,0,0,.439,1.06l1.534,1.533a6.96,6.96,0,0,1,6.615,6.939c0,.092-.01.185-.014.276h3.235V268.018a1.5,1.5,0,0,0-1.5-1.5Z" transform="translate(22.751 62.328)" fill="#fff"/>
        <path id="Path_157" data-name="Path 157" d="M99.883,272.45a5.677,5.677,0,0,0-5.678,5.678,5.32,5.32,0,0,0,.051.712,5.675,5.675,0,0,0,11.284-.228c.014-.16.023-.322.023-.485a5.678,5.678,0,0,0-5.68-5.678Zm-2.843,3.537,1.158,1.158a1.955,1.955,0,0,0-.206.5H96.359a3.541,3.541,0,0,1,.681-1.657Zm-.686,2.641H98a1.944,1.944,0,0,0,.207.495l-1.161,1.16a3.551,3.551,0,0,1-.69-1.654Zm3.037,3.027a3.533,3.533,0,0,1-1.646-.681l1.154-1.154a2,2,0,0,0,.492.2v1.637Zm0-5.417a2.015,2.015,0,0,0-.5.21l-1.154-1.156a3.506,3.506,0,0,1,1.657-.686v1.633Zm.983-1.632a3.514,3.514,0,0,1,1.66.687l-1.154,1.155a2.023,2.023,0,0,0-.5-.21l0-1.632Zm0,7.05v-1.637a2.012,2.012,0,0,0,.5-.2l1.154,1.158a3.527,3.527,0,0,1-1.65.681Zm2.354-1.37-1.164-1.164a2.03,2.03,0,0,0,.212-.493h1.631a3.555,3.555,0,0,1-.678,1.657Zm-.953-2.64a1.96,1.96,0,0,0-.205-.5l1.158-1.158a3.506,3.506,0,0,1,.68,1.659h-1.632Z" transform="translate(22.031 63.716)" fill="#fff"/>
      </g>
      <g id="Artboard_1-3" data-name="Artboard 1" transform="translate(865 3241)" opacity="0.12" clip-path="url(#clip-path-2)">
        <path id="Path_158" data-name="Path 158" d="M-1.192,157.768a30.252,30.252,0,0,0-16.6,16.6,30.256,30.256,0,0,0,0,22.694,30.252,30.252,0,0,0,16.6,16.6,30.267,30.267,0,0,0,22.694,0,29.95,29.95,0,0,0,9.976-6.624,29.922,29.922,0,0,0,6.624-9.976,30.276,30.276,0,0,0,0-22.694,30.252,30.252,0,0,0-16.6-16.6,30.284,30.284,0,0,0-22.694,0Zm-11.271,40.641a20.7,20.7,0,0,1-3.976-3.2,28.427,28.427,0,0,1-.917-15.841,25.3,25.3,0,0,1,1.932-3.2c.224-.316.432-.645.672-.952l6.8,4.027v.171a52.419,52.419,0,0,0,1.094,10.874c0,.017.005.026.008.041l-5.277,8.275a3.8,3.8,0,0,1-.34-.192ZM7.769,212.4a25.9,25.9,0,0,0,3.623,1.517,28.28,28.28,0,0,1-15.3-3.706L7.5,212.242C7.587,212.3,7.676,212.351,7.769,212.4Zm-.042-2.059-13.461-2.4a42.03,42.03,0,0,1-4.209-6.1c-.31-.55-.656-1.084-.918-1.658l5.272-8.267c.117.029.247.06.394.1a87.509,87.509,0,0,0,10.035,2c.2.027.362.052.5.067l6.32,10.927q-1.645,2.312-3.339,4.591c-.188.253-.388.5-.6.736Zm22.4-4.655a28.045,28.045,0,0,1-3.4,2.9A25.843,25.843,0,0,0,25.7,203.95l6.743-12.58a31.494,31.494,0,0,0,5.312-2.994,2.375,2.375,0,0,0,.538-.515,28.1,28.1,0,0,1-8.175,17.823Zm-.3-16.314c.251.478.5.962.747,1.452l-6.513,12.15c-.037.008-.073.017-.111.022A59.414,59.414,0,0,1,13.3,204.017L6.8,192.778q1.518-2.818,3.008-5.651c.675-1.28,1.338-2.568,2-3.856L25.26,181.89a75.084,75.084,0,0,1,4.565,7.48ZM27.1,174.959c-.638,1.686-1.322,3.354-2,5.026l-13.1,1.346c-.157-.207-.319-.41-.49-.6q-2.321-2.628-4.66-5.241c.014-.018.028-.031.042-.047L5,173.556l3.648-10.984a5.108,5.108,0,0,1,.761-.15c1.983-.2,3.969-.43,5.957-.545a28.978,28.978,0,0,1,3.68-.02l9.026,10.174c-.311.982-.614,1.967-.976,2.927Zm3.028-9.213a28.117,28.117,0,0,1,5.782,8.372,28.661,28.661,0,0,0-5.386-2.894c-.295-.122-.6-.229-.9-.335L20.73,160.875a11.736,11.736,0,0,0,.107-1.3,28.1,28.1,0,0,1,9.286,6.174Zm-29.012-6.7c.035.026.052.048.072.053a22.587,22.587,0,0,1,5.62,2.961L3.394,172.325a.367.367,0,0,0-.051.018c-.7.288-1.408.547-2.095.859a60.086,60.086,0,0,0-8.186,4.417l-6.726-3.979a2.032,2.032,0,0,1,.117-.613c.452-1.2.9-2.413,1.407-3.592a26.93,26.93,0,0,1,1.331-2.643c.32-.353.652-.7.993-1.045a28.073,28.073,0,0,1,10.988-6.8C1.153,158.977,1.131,159.011,1.111,159.046Z" transform="translate(-4.677 36.38)" fill="#fff"/>
        <path id="Path_159" data-name="Path 159" d="M359.955,157.768a30.277,30.277,0,1,0,11.347-2.207,30.277,30.277,0,0,0-11.347,2.207ZM348.684,198.41a20.7,20.7,0,0,1-3.976-3.2,28.427,28.427,0,0,1-.917-15.841,25.3,25.3,0,0,1,1.932-3.2c.224-.316.432-.645.672-.952l6.8,4.027v.171a52.424,52.424,0,0,0,1.094,10.874c0,.017.005.026.008.041l-5.277,8.275a3.841,3.841,0,0,1-.34-.192ZM368.916,212.4a25.893,25.893,0,0,0,3.623,1.517,28.279,28.279,0,0,1-15.3-3.706l11.407,2.033c.088.056.177.109.27.157Zm-.042-2.059-13.461-2.4a42.029,42.029,0,0,1-4.209-6.1c-.31-.55-.656-1.084-.918-1.658l5.272-8.267c.117.029.247.06.394.1a87.5,87.5,0,0,0,10.035,2c.2.027.363.052.5.067l6.32,10.927q-1.645,2.312-3.339,4.591c-.188.253-.388.5-.6.737Zm22.4-4.655a28.043,28.043,0,0,1-3.4,2.9,25.834,25.834,0,0,0-1.019-4.636l6.743-12.58a31.5,31.5,0,0,0,5.312-2.994,2.376,2.376,0,0,0,.538-.515,28.1,28.1,0,0,1-8.175,17.823Zm-.3-16.315c.251.478.5.962.747,1.452l-6.513,12.15c-.037.008-.073.017-.111.022a59.414,59.414,0,0,1-10.648,1.024l-6.5-11.239q1.518-2.818,3.008-5.651c.675-1.28,1.338-2.568,2-3.856l13.452-1.382a75.087,75.087,0,0,1,4.565,7.481Zm-2.729-14.411c-.638,1.686-1.322,3.354-2,5.026l-13.1,1.346c-.157-.207-.319-.41-.49-.6q-2.321-2.628-4.66-5.241c.014-.018.028-.031.042-.047l-1.884-1.882,3.648-10.984a5.108,5.108,0,0,1,.761-.15c1.983-.2,3.969-.43,5.957-.545a28.972,28.972,0,0,1,3.68-.02l9.026,10.174c-.311.982-.615,1.967-.976,2.927Zm3.028-9.213a28.116,28.116,0,0,1,5.781,8.372,28.661,28.661,0,0,0-5.386-2.894c-.295-.122-.6-.229-.9-.335l-8.885-10.014a11.74,11.74,0,0,0,.107-1.3,28.1,28.1,0,0,1,9.286,6.174Zm-29.012-6.7c.035.026.052.048.072.053a22.587,22.587,0,0,1,5.62,2.961l-3.408,10.264a.369.369,0,0,0-.051.018c-.7.288-1.408.547-2.095.859a60.084,60.084,0,0,0-8.186,4.417l-6.726-3.979a2.029,2.029,0,0,1,.117-.613c.452-1.2.9-2.413,1.407-3.592a26.924,26.924,0,0,1,1.331-2.643c.32-.353.652-.7.993-1.045a28.073,28.073,0,0,1,10.988-6.8c-.02.033-.043.067-.062.1Z" transform="translate(79.752 36.38)" fill="#fff"/>
        <path id="Path_160" data-name="Path 160" d="M194.009,343.36a57.083,57.083,0,0,1,8.821-.676c1.412,0,2.825.052,4.2.155a6.633,6.633,0,0,1,5.965,6.25,65.866,65.866,0,0,1-.486,13.651Zm-35.951,37.649a65.87,65.87,0,0,0-.486,13.651,6.634,6.634,0,0,0,5.965,6.25c1.372.1,2.783.155,4.2.155h0a57.107,57.107,0,0,0,8.819-.675Zm53.757-14.383A46.951,46.951,0,0,1,201.124,388.4c-.024.027-.049.052-.074.078a43.272,43.272,0,0,1-20.787,11.192l-21.515-22.545a46.951,46.951,0,0,1,10.691-21.771q.036-.04.074-.077A43.271,43.271,0,0,1,190.3,344.082Zm-15,.127-2.223-2.33,1.73-1.812a1.685,1.685,0,0,0,0-2.3,1.505,1.505,0,0,0-2.2,0l-1.73,1.812-2.224-2.33a1.505,1.505,0,0,0-2.2,0,1.685,1.685,0,0,0,0,2.3l2.223,2.33-2.542,2.663-2.224-2.33a1.505,1.505,0,0,0-2.2,0,1.685,1.685,0,0,0,0,2.3l2.223,2.33-2.542,2.663-2.224-2.329a1.505,1.505,0,0,0-2.2,0,1.685,1.685,0,0,0,0,2.3l2.223,2.33-2.542,2.663-2.224-2.33a1.505,1.505,0,0,0-2.2,0,1.685,1.685,0,0,0,0,2.3l2.223,2.33-1.73,1.812a1.685,1.685,0,0,0,0,2.3,1.505,1.505,0,0,0,2.2,0l1.73-1.812,2.223,2.33a1.506,1.506,0,0,0,2.2,0,1.685,1.685,0,0,0,0-2.3l-2.223-2.33,2.542-2.663,2.223,2.33a1.506,1.506,0,0,0,2.2,0,1.685,1.685,0,0,0,0-2.3l-2.224-2.33,2.542-2.663,2.223,2.33a1.506,1.506,0,0,0,2.2,0,1.684,1.684,0,0,0,0-2.3l-2.223-2.33,2.542-2.663,2.223,2.33a1.506,1.506,0,0,0,2.2,0,1.687,1.687,0,0,0,0-2.3Z" transform="translate(36.814 93.705)" fill="#fff"/>
        <path id="Path_161" data-name="Path 161" d="M191.231,165.576a57.072,57.072,0,0,1,8.82-.675c1.412,0,2.825.052,4.2.155a6.633,6.633,0,0,1,5.965,6.25,65.869,65.869,0,0,1-.486,13.651ZM155.28,203.225a65.867,65.867,0,0,0-.486,13.651,6.633,6.633,0,0,0,5.965,6.25c1.372.1,2.783.155,4.2.155h0a57.083,57.083,0,0,0,8.819-.675Zm53.757-14.383a46.953,46.953,0,0,1-10.691,21.771q-.036.04-.074.077a43.272,43.272,0,0,1-20.787,11.192L155.97,199.338a46.952,46.952,0,0,1,10.691-21.771q.036-.04.074-.077A43.273,43.273,0,0,1,187.523,166.3Zm-15,.127-2.223-2.33,1.73-1.813a1.685,1.685,0,0,0,0-2.3,1.505,1.505,0,0,0-2.2,0l-1.73,1.812-2.224-2.33a1.505,1.505,0,0,0-2.2,0,1.685,1.685,0,0,0,0,2.3l2.223,2.33-2.542,2.663-2.224-2.33a1.505,1.505,0,0,0-2.2,0,1.685,1.685,0,0,0,0,2.3l2.223,2.33-2.542,2.663-2.223-2.33a1.505,1.505,0,0,0-2.2,0,1.685,1.685,0,0,0,0,2.3l2.223,2.33-2.542,2.663-2.224-2.33a1.505,1.505,0,0,0-2.2,0,1.685,1.685,0,0,0,0,2.3l2.223,2.33-1.73,1.812a1.685,1.685,0,0,0,0,2.3,1.506,1.506,0,0,0,2.2,0l1.73-1.812,2.224,2.33a1.505,1.505,0,0,0,2.2,0,1.684,1.684,0,0,0,0-2.3l-2.223-2.33,2.542-2.663,2.223,2.33a1.505,1.505,0,0,0,2.2,0,1.685,1.685,0,0,0,0-2.3l-2.224-2.33,2.542-2.663,2.224,2.33a1.505,1.505,0,0,0,2.2,0,1.684,1.684,0,0,0,0-2.3l-2.223-2.33,2.542-2.663,2.223,2.33a1.505,1.505,0,0,0,2.2,0,1.687,1.687,0,0,0,0-2.3Z" transform="translate(36.165 38.564)" fill="#fff"/>
        <path id="Path_162" data-name="Path 162" d="M194.01-29.324a57.079,57.079,0,0,1,8.82-.676c1.412,0,2.825.052,4.2.155a6.634,6.634,0,0,1,5.965,6.25A65.867,65.867,0,0,1,212.5-9.944ZM158.057,8.325a65.867,65.867,0,0,0-.486,13.651,6.634,6.634,0,0,0,5.965,6.25c1.372.1,2.783.155,4.2.155h0a57.1,57.1,0,0,0,8.819-.675ZM211.815-6.058a46.952,46.952,0,0,1-10.691,21.771q-.036.04-.074.077a43.27,43.27,0,0,1-20.787,11.192L158.747,4.438a46.952,46.952,0,0,1,10.691-21.771c.024-.027.048-.052.074-.078A43.272,43.272,0,0,1,190.3-28.6Zm-15,.127-2.223-2.33,1.73-1.812a1.685,1.685,0,0,0,0-2.3,1.505,1.505,0,0,0-1.1-.477,1.505,1.505,0,0,0-1.1.477l-1.73,1.812-2.224-2.33a1.505,1.505,0,0,0-1.1-.477,1.505,1.505,0,0,0-1.1.477,1.685,1.685,0,0,0,0,2.3l2.223,2.33L187.651-5.6l-2.224-2.33a1.505,1.505,0,0,0-1.1-.477,1.505,1.505,0,0,0-1.1.477,1.685,1.685,0,0,0,0,2.3l2.223,2.33L182.91-.63l-2.224-2.33a1.505,1.505,0,0,0-1.1-.477,1.505,1.505,0,0,0-1.1.477,1.685,1.685,0,0,0,0,2.3l2.223,2.33-2.542,2.663-2.224-2.33a1.505,1.505,0,0,0-2.2,0,1.685,1.685,0,0,0,0,2.3l2.223,2.33-1.73,1.812a1.685,1.685,0,0,0,0,2.3,1.506,1.506,0,0,0,2.2,0l1.73-1.812,2.223,2.33a1.506,1.506,0,0,0,2.2,0,1.685,1.685,0,0,0,0-2.3l-2.222-2.33,2.542-2.663,2.223,2.33a1.506,1.506,0,0,0,2.2,0,1.685,1.685,0,0,0,0-2.3l-2.224-2.33L187.653-.99l2.223,2.33a1.506,1.506,0,0,0,2.2,0,1.684,1.684,0,0,0,0-2.3l-2.223-2.33,2.542-2.663,2.223,2.33a1.516,1.516,0,0,0,1.1.477,1.516,1.516,0,0,0,1.1-.477,1.687,1.687,0,0,0,0-2.3Z" transform="translate(36.814 -7.016)" fill="#fff"/>
        <path id="Path_163" data-name="Path 163" d="M69.048,118.182a2.18,2.18,0,0,1-1.661-.75C64.036,113.5,54.719,95.3,58.522,83.762A30.55,30.55,0,0,1,82.373,63.681c12.775-2.339,25.543,2.559,35.042,13.438a1.906,1.906,0,0,1-.3,2.8,2.172,2.172,0,0,1-.67.346L97.33,86.236a2.162,2.162,0,0,1-2.69-1.261,1.968,1.968,0,0,1,1.345-2.521h0l16.081-5.025c-8.2-8.16-18.577-11.742-28.883-9.849a26.4,26.4,0,0,0-20.6,17.348c-3.29,10.015,5.554,27,8.123,30.024a1.907,1.907,0,0,1-.338,2.8,2.215,2.215,0,0,1-1.32.433Z" transform="translate(13.476 14.759)" fill="#fff"/>
        <path id="Path_164" data-name="Path 164" d="M97.017,114.535H67.284a1.994,1.994,0,1,1,0-3.98H94.893v-8.27a2.4,2.4,0,0,0-.656-1.638l-4.849-5.182a9.912,9.912,0,0,1,1.039-14.617,11.26,11.26,0,0,1,3.786-2.033A2.161,2.161,0,0,1,96.9,80.077a1.967,1.967,0,0,1-1.346,2.52,6.2,6.2,0,0,0-2.974,10.257l4.842,5.174a6.239,6.239,0,0,1,1.7,4.257v10.259a2.059,2.059,0,0,1-2.107,1.99Z" transform="translate(15.238 18.406)" fill="#fff"/>
        <path id="Path_165" data-name="Path 165" d="M104.929,112.266H90.062a1.994,1.994,0,1,1,0-3.98h13.9a12.753,12.753,0,0,0,3.094-7.961,12.493,12.493,0,0,0-2.6-7.338,20.088,20.088,0,0,1-8.017,1.367h-8.5a1.994,1.994,0,1,1,0-3.98h8.5c5.193,0,7.03-1.441,7.049-1.455a2.306,2.306,0,0,1,2.948.048,15.682,15.682,0,0,1,0,22.716,2.2,2.2,0,0,1-1.5.582Z" transform="translate(20.069 20.676)" fill="#fff"/>
        <path id="Path_166" data-name="Path 166" d="M106.247,98.821H91.381a1.994,1.994,0,1,1,0-3.98h14.866a1.994,1.994,0,1,1,0,3.98Z" transform="translate(20.874 22.179)" fill="#fff"/>
        <path id="Path_167" data-name="Path 167" d="M106.247,103.66H91.381a1.994,1.994,0,1,1,0-3.98h14.866a1.994,1.994,0,1,1,0,3.98Z" transform="translate(20.874 23.31)" fill="#fff"/>
        <path id="Path_168" data-name="Path 168" d="M98.266,111.893a2.061,2.061,0,0,1-2.124-1.99V91.991a2.128,2.128,0,0,1,4.248,0V109.9a2.061,2.061,0,0,1-2.124,1.991Z" transform="translate(22.484 21.048)" fill="#fff"/>
        <path id="Path_169" data-name="Path 169" d="M80.321,84.682A2.992,2.992,0,1,1,83.506,81.7a3.09,3.09,0,0,1-3.186,2.985Zm0-3.98a1,1,0,1,0,1.062,1,1.03,1.03,0,0,0-1.062-1Z" transform="translate(18.13 18.406)" fill="#fff"/>
        <path id="Path_170" data-name="Path 170" d="M84.624,103.231a2.992,2.992,0,1,1,3.186-2.985,3.09,3.09,0,0,1-3.186,2.985Zm0-3.98a1,1,0,1,0,1.062,1,1.03,1.03,0,0,0-1.062-.995Z" transform="translate(19.136 22.744)" fill="#fff"/>
        <path id="Path_171" data-name="Path 171" d="M254.713,255.427v52.214h5.221V291.977h41.771V255.427Zm26.107,5.221h5.221v5.219H280.82Zm-10.443,0H275.6v5.219h-5.221v-5.219Zm26.107,5.221h-5.221v5.219h-5.221v5.221h5.221v-5.219h5.221v5.221h-5.221v5.221h5.221v5.221h-5.221v-5.221h-5.221v5.221H280.82v-5.221H275.6v5.221h-5.221v-5.221h-5.221v5.221h-5.221v-5.221h5.221v-5.221h-5.221v-5.221h5.221v5.219h5.221v-5.221h-5.221v-5.219h-5.221v-5.221h5.221v5.221h5.221v5.219H275.6v-5.219h5.221v5.219h5.221v-5.219h5.221v-5.221h5.221Z" transform="translate(59.568 59.735)" fill="#fff"/>
        <rect id="Rectangle_36" data-name="Rectangle 36" width="5.221" height="5.221" transform="translate(335.166 330.823)" fill="#fff"/>
        <rect id="Rectangle_37" data-name="Rectangle 37" width="5.221" height="5.221" transform="translate(329.945 336.045)" fill="#fff"/>
        <rect id="Rectangle_38" data-name="Rectangle 38" width="5.221" height="5.221" transform="translate(340.388 336.045)" fill="#fff"/>
        <path id="Path_172" data-name="Path 172" d="M263.177,66.942v52.214H268.4V103.492H310.17V66.942Zm26.107,5.221h5.221v5.219h-5.221Zm-10.443,0h5.221v5.219h-5.221Zm26.107,5.221h-5.221V82.6H294.5v5.221h5.221V82.606h5.221v5.221h-5.221v5.221h5.221V98.27h-5.221V93.049H294.5V98.27h-5.221V93.049h-5.221V98.27H278.84V93.049h-5.221V98.27H268.4V93.049h5.221V87.827H268.4V82.606h5.221v5.219h5.221V82.6h-5.221V77.384H268.4V72.163h5.221v5.221h5.221V82.6h5.221V77.385h5.221V82.6H294.5V77.385h5.221V72.163h5.221Z" transform="translate(61.547 15.655)" fill="#fff"/>
        <rect id="Rectangle_39" data-name="Rectangle 39" width="5.221" height="5.221" transform="translate(345.608 98.258)" fill="#fff"/>
        <rect id="Rectangle_40" data-name="Rectangle 40" width="5.221" height="5.221" transform="translate(340.388 103.48)" fill="#fff"/>
        <rect id="Rectangle_41" data-name="Rectangle 41" width="5.221" height="5.221" transform="translate(350.83 103.48)" fill="#fff"/>
        <path id="Path_173" data-name="Path 173" d="M98.762,170.589l3.773,7.645,8.437,1.225-6.105,5.951,1.441,8.4-7.546-3.967-7.545,3.967,1.441-8.4-6.105-5.951,8.437-1.225Z" transform="translate(20.241 39.894)" fill="#fff"/>
        <path id="Path_174" data-name="Path 174" d="M183.974,253.15l6.48,13.13,14.488,2.105L194.458,278.6l2.475,14.43-12.959-6.812-12.959,6.812,2.475-14.43-10.484-10.22,14.488-2.105Z" transform="translate(38.121 59.202)" fill="#fff"/>
        <path id="Path_175" data-name="Path 175" d="M273.352,168.992l4.414,8.942,9.867,1.434-7.14,6.96,1.687,9.829-8.827-4.641-8.826,4.641,1.685-9.829-7.14-6.96,9.868-1.434Z" transform="translate(60.587 39.521)" fill="#fff"/>
        <path id="Path_176" data-name="Path 176" d="M42.35,23.784l4.135,8.379,9.247,1.344-6.69,6.522,1.579,9.21L42.35,44.89,34.08,49.239l1.579-9.21-6.691-6.522,9.247-1.344Z" transform="translate(6.775 5.562)" fill="#fff"/>
        <path id="Path_177" data-name="Path 177" d="M327.949,313.187l4.136,8.379,9.247,1.344-6.691,6.522,1.579,9.21-8.271-4.348-8.271,4.348,1.581-9.21-6.691-6.522,9.247-1.344Z" transform="translate(73.566 73.243)" fill="#fff"/>
        <path id="Path_178" data-name="Path 178" d="M329.215,23.137l4.135,8.379L342.6,32.86l-6.691,6.522,1.579,9.21-8.271-4.348-8.271,4.348,1.579-9.21-6.691-6.522,9.247-1.344Z" transform="translate(73.861 5.411)" fill="#fff"/>
        <path id="Path_179" data-name="Path 179" d="M39.171,314.065l4.136,8.379,9.247,1.344-6.691,6.522,1.579,9.21-8.271-4.348L30.9,339.52l1.579-9.21-6.69-6.522,9.247-1.344Z" transform="translate(6.031 73.448)" fill="#fff"/>
        <path id="Path_180" data-name="Path 180" d="M161.566,91.45a5.677,5.677,0,0,0-5.678,5.678,5.321,5.321,0,0,0,.051.712,5.674,5.674,0,0,0,11.283-.228c.014-.16.025-.322.025-.485a5.678,5.678,0,0,0-5.68-5.678Zm-2.844,3.537,1.16,1.158a1.92,1.92,0,0,0-.206.5h-1.633a3.537,3.537,0,0,1,.679-1.658Zm-.685,2.641h1.644a1.943,1.943,0,0,0,.207.495l-1.161,1.16a3.549,3.549,0,0,1-.69-1.654Zm3.037,3.027a3.536,3.536,0,0,1-1.646-.681l1.154-1.156a1.918,1.918,0,0,0,.491.2Zm0-5.417a2.042,2.042,0,0,0-.5.21l-1.154-1.156a3.511,3.511,0,0,1,1.656-.686v1.632Zm.983-1.632a3.515,3.515,0,0,1,1.66.687l-1.155,1.155a2.019,2.019,0,0,0-.5-.21V93.606Zm0,7.05V99.018a2,2,0,0,0,.495-.2l1.154,1.158a3.518,3.518,0,0,1-1.648.681Zm2.353-1.37-1.164-1.164a2.028,2.028,0,0,0,.211-.493h1.631a3.53,3.53,0,0,1-.678,1.657Zm-.953-2.64a1.924,1.924,0,0,0-.2-.5l1.158-1.158a3.517,3.517,0,0,1,.68,1.659h-1.634Z" transform="translate(36.456 21.387)" fill="#fff"/>
        <path id="Path_181" data-name="Path 181" d="M205.836,98.3a6.949,6.949,0,0,1,3.367-5.946L195.826,86.43h-8.392a.905.905,0,0,0-.9.906v1.189a.905.905,0,0,0,.9.906h.6v.824h-1.522a1.112,1.112,0,0,0-1.056.762l-.122.363c-2.771-.224-4.089,1.9-5.474,1.9l-.935-1.126a2.647,2.647,0,0,0-2.281-.946,3.675,3.675,0,0,0-.833.175l-.525,1.9s-4.763-.277-10.953-.055A6.934,6.934,0,0,1,166.55,98.3c0,.2.032,4.4.032,4.4h40.836a6.9,6.9,0,0,1-1.521-3.528A7,7,0,0,1,205.836,98.3Z" transform="translate(38.43 20.213)" fill="#fff"/>
        <path id="Path_182" data-name="Path 182" d="M157,96.854a6.915,6.915,0,0,1,1.45-4.234,38.938,38.938,0,0,0-12.774,3.61c0,.973,4.274.016,4.274,2.024h-3.3a.6.6,0,0,0-.6.6v1.8a.6.6,0,0,0,.6.6h8.244a.6.6,0,0,0,.6-.6V97.879h1.589c-.007-.051-.02-.1-.027-.153A6.67,6.67,0,0,1,157,96.854Z" transform="translate(34.068 21.66)" fill="#fff"/>
        <path id="Path_183" data-name="Path 183" d="M212.6,85.518h-8.81a1.5,1.5,0,0,0-1.5,1.5v1.965a1.5,1.5,0,0,0,.439,1.06l1.534,1.533a6.96,6.96,0,0,1,6.615,6.939c0,.092-.01.185-.014.276h3.235V87.018a1.5,1.5,0,0,0-1.5-1.5Z" transform="translate(47.307 19.999)" fill="#fff"/>
        <path id="Path_184" data-name="Path 184" d="M204.883,91.45a5.677,5.677,0,0,0-5.678,5.678,5.316,5.316,0,0,0,.051.712,5.675,5.675,0,0,0,11.284-.228c.014-.16.023-.322.023-.485a5.678,5.678,0,0,0-5.68-5.678Zm-2.843,3.537,1.158,1.158a1.955,1.955,0,0,0-.206.5h-1.634a3.54,3.54,0,0,1,.682-1.658Zm-.686,2.641H203a1.942,1.942,0,0,0,.207.495l-1.161,1.16a3.55,3.55,0,0,1-.69-1.654Zm3.037,3.027a3.533,3.533,0,0,1-1.646-.681l1.154-1.154a2,2,0,0,0,.492.2v1.637Zm0-5.417a2.015,2.015,0,0,0-.5.21l-1.154-1.156a3.506,3.506,0,0,1,1.657-.686v1.633h0Zm.983-1.632a3.514,3.514,0,0,1,1.66.687l-1.154,1.155a2.019,2.019,0,0,0-.5-.21l0-1.632Zm0,7.05V99.018a2.014,2.014,0,0,0,.5-.2l1.154,1.158a3.528,3.528,0,0,1-1.65.681Zm2.354-1.37-1.164-1.164a2.029,2.029,0,0,0,.212-.493h1.631a3.555,3.555,0,0,1-.678,1.657Zm-.953-2.64a1.961,1.961,0,0,0-.205-.5l1.158-1.158a3.506,3.506,0,0,1,.68,1.659h-1.632Z" transform="translate(46.587 21.387)" fill="#fff"/>
        <path id="Path_185" data-name="Path 185" d="M56.566,272.45a5.677,5.677,0,0,0-5.678,5.678,5.32,5.32,0,0,0,.051.712,5.674,5.674,0,0,0,11.283-.228c.014-.16.025-.322.025-.485a5.678,5.678,0,0,0-5.68-5.678Zm-2.844,3.537,1.16,1.158a1.92,1.92,0,0,0-.206.5H53.042a3.537,3.537,0,0,1,.68-1.657Zm-.685,2.641h1.644a1.944,1.944,0,0,0,.207.495l-1.161,1.16a3.549,3.549,0,0,1-.69-1.654Zm3.037,3.027a3.536,3.536,0,0,1-1.646-.681l1.154-1.156a1.916,1.916,0,0,0,.491.2Zm0-5.417a2.041,2.041,0,0,0-.5.21l-1.154-1.156a3.511,3.511,0,0,1,1.656-.686v1.632Zm.983-1.632a3.515,3.515,0,0,1,1.66.687l-1.155,1.155a2.02,2.02,0,0,0-.5-.21v-1.632Zm0,7.05v-1.637a2,2,0,0,0,.495-.2l1.154,1.158a3.518,3.518,0,0,1-1.648.681Zm2.353-1.37-1.164-1.164a2.028,2.028,0,0,0,.211-.493H60.09a3.53,3.53,0,0,1-.678,1.657Zm-.953-2.64a1.922,1.922,0,0,0-.2-.5l1.158-1.158a3.516,3.516,0,0,1,.68,1.659H58.459Z" transform="translate(11.901 63.716)" fill="#fff"/>
        <path id="Path_186" data-name="Path 186" d="M100.836,279.3a6.949,6.949,0,0,1,3.367-5.946L90.826,267.43H82.434a.9.9,0,0,0-.9.905v1.189a.905.905,0,0,0,.9.906h.6v.824H81.507a1.112,1.112,0,0,0-1.056.762l-.122.363c-2.771-.224-4.089,1.9-5.474,1.9l-.935-1.126a2.647,2.647,0,0,0-2.281-.946,3.671,3.671,0,0,0-.833.175l-.525,1.9s-4.763-.277-10.953-.055A6.934,6.934,0,0,1,61.55,279.3c0,.2.032,4.4.032,4.4h40.836a6.9,6.9,0,0,1-1.521-3.528A7,7,0,0,1,100.836,279.3Z" transform="translate(13.875 62.542)" fill="#fff"/>
        <path id="Path_187" data-name="Path 187" d="M52,277.853a6.915,6.915,0,0,1,1.45-4.234,38.938,38.938,0,0,0-12.774,3.61c0,.973,4.274.016,4.274,2.024h-3.3a.6.6,0,0,0-.6.6v1.8a.6.6,0,0,0,.6.6h8.244a.6.6,0,0,0,.6-.6v-2.773h1.589c-.007-.051-.02-.1-.027-.153a6.67,6.67,0,0,1-.061-.873Z" transform="translate(9.512 63.989)" fill="#fff"/>
        <path id="Path_188" data-name="Path 188" d="M107.6,266.518h-8.81a1.5,1.5,0,0,0-1.5,1.5v1.965a1.5,1.5,0,0,0,.439,1.06l1.534,1.533a6.96,6.96,0,0,1,6.615,6.939c0,.092-.01.185-.014.276h3.235V268.018a1.5,1.5,0,0,0-1.5-1.5Z" transform="translate(22.751 62.328)" fill="#fff"/>
        <path id="Path_189" data-name="Path 189" d="M99.883,272.45a5.677,5.677,0,0,0-5.678,5.678,5.32,5.32,0,0,0,.051.712,5.675,5.675,0,0,0,11.284-.228c.014-.16.023-.322.023-.485a5.678,5.678,0,0,0-5.68-5.678Zm-2.843,3.537,1.158,1.158a1.955,1.955,0,0,0-.206.5H96.359a3.541,3.541,0,0,1,.681-1.657Zm-.686,2.641H98a1.944,1.944,0,0,0,.207.495l-1.161,1.16a3.551,3.551,0,0,1-.69-1.654Zm3.037,3.027a3.533,3.533,0,0,1-1.646-.681l1.154-1.154a2,2,0,0,0,.492.2v1.637Zm0-5.417a2.015,2.015,0,0,0-.5.21l-1.154-1.156a3.506,3.506,0,0,1,1.657-.686v1.633Zm.983-1.632a3.514,3.514,0,0,1,1.66.687l-1.154,1.155a2.023,2.023,0,0,0-.5-.21l0-1.632Zm0,7.05v-1.637a2.012,2.012,0,0,0,.5-.2l1.154,1.158a3.527,3.527,0,0,1-1.65.681Zm2.354-1.37-1.164-1.164a2.03,2.03,0,0,0,.212-.493h1.631a3.555,3.555,0,0,1-.678,1.657Zm-.953-2.64a1.96,1.96,0,0,0-.205-.5l1.158-1.158a3.506,3.506,0,0,1,.68,1.659h-1.632Z" transform="translate(22.031 63.716)" fill="#fff"/>
      </g>
      <g id="Artboard_1-4" data-name="Artboard 1" transform="translate(1309 3241)" opacity="0.12" clip-path="url(#clip-path-2)">
        <path id="Path_190" data-name="Path 190" d="M-1.192,157.768a30.252,30.252,0,0,0-16.6,16.6,30.256,30.256,0,0,0,0,22.694,30.252,30.252,0,0,0,16.6,16.6,30.267,30.267,0,0,0,22.694,0,29.95,29.95,0,0,0,9.976-6.624,29.922,29.922,0,0,0,6.624-9.976,30.276,30.276,0,0,0,0-22.694,30.252,30.252,0,0,0-16.6-16.6,30.284,30.284,0,0,0-22.694,0Zm-11.271,40.641a20.7,20.7,0,0,1-3.976-3.2,28.427,28.427,0,0,1-.917-15.841,25.3,25.3,0,0,1,1.932-3.2c.224-.316.432-.645.672-.952l6.8,4.027v.171a52.419,52.419,0,0,0,1.094,10.874c0,.017.005.026.008.041l-5.277,8.275a3.8,3.8,0,0,1-.34-.192ZM7.769,212.4a25.9,25.9,0,0,0,3.623,1.517,28.28,28.28,0,0,1-15.3-3.706L7.5,212.242C7.587,212.3,7.676,212.351,7.769,212.4Zm-.042-2.059-13.461-2.4a42.03,42.03,0,0,1-4.209-6.1c-.31-.55-.656-1.084-.918-1.658l5.272-8.267c.117.029.247.06.394.1a87.509,87.509,0,0,0,10.035,2c.2.027.362.052.5.067l6.32,10.927q-1.645,2.312-3.339,4.591c-.188.253-.388.5-.6.736Zm22.4-4.655a28.045,28.045,0,0,1-3.4,2.9A25.843,25.843,0,0,0,25.7,203.95l6.743-12.58a31.494,31.494,0,0,0,5.312-2.994,2.375,2.375,0,0,0,.538-.515,28.1,28.1,0,0,1-8.175,17.823Zm-.3-16.314c.251.478.5.962.747,1.452l-6.513,12.15c-.037.008-.073.017-.111.022A59.414,59.414,0,0,1,13.3,204.017L6.8,192.778q1.518-2.818,3.008-5.651c.675-1.28,1.338-2.568,2-3.856L25.26,181.89a75.084,75.084,0,0,1,4.565,7.48ZM27.1,174.959c-.638,1.686-1.322,3.354-2,5.026l-13.1,1.346c-.157-.207-.319-.41-.49-.6q-2.321-2.628-4.66-5.241c.014-.018.028-.031.042-.047L5,173.556l3.648-10.984a5.108,5.108,0,0,1,.761-.15c1.983-.2,3.969-.43,5.957-.545a28.978,28.978,0,0,1,3.68-.02l9.026,10.174c-.311.982-.614,1.967-.976,2.927Zm3.028-9.213a28.117,28.117,0,0,1,5.782,8.372,28.661,28.661,0,0,0-5.386-2.894c-.295-.122-.6-.229-.9-.335L20.73,160.875a11.736,11.736,0,0,0,.107-1.3,28.1,28.1,0,0,1,9.286,6.174Zm-29.012-6.7c.035.026.052.048.072.053a22.587,22.587,0,0,1,5.62,2.961L3.394,172.325a.367.367,0,0,0-.051.018c-.7.288-1.408.547-2.095.859a60.086,60.086,0,0,0-8.186,4.417l-6.726-3.979a2.032,2.032,0,0,1,.117-.613c.452-1.2.9-2.413,1.407-3.592a26.93,26.93,0,0,1,1.331-2.643c.32-.353.652-.7.993-1.045a28.073,28.073,0,0,1,10.988-6.8C1.153,158.977,1.131,159.011,1.111,159.046Z" transform="translate(-4.677 36.38)" fill="#fff"/>
        <path id="Path_191" data-name="Path 191" d="M359.955,157.768a30.277,30.277,0,1,0,11.347-2.207,30.277,30.277,0,0,0-11.347,2.207ZM348.684,198.41a20.7,20.7,0,0,1-3.976-3.2,28.427,28.427,0,0,1-.917-15.841,25.3,25.3,0,0,1,1.932-3.2c.224-.316.432-.645.672-.952l6.8,4.027v.171a52.424,52.424,0,0,0,1.094,10.874c0,.017.005.026.008.041l-5.277,8.275a3.841,3.841,0,0,1-.34-.192ZM368.916,212.4a25.893,25.893,0,0,0,3.623,1.517,28.279,28.279,0,0,1-15.3-3.706l11.407,2.033c.088.056.177.109.27.157Zm-.042-2.059-13.461-2.4a42.029,42.029,0,0,1-4.209-6.1c-.31-.55-.656-1.084-.918-1.658l5.272-8.267c.117.029.247.06.394.1a87.5,87.5,0,0,0,10.035,2c.2.027.363.052.5.067l6.32,10.927q-1.645,2.312-3.339,4.591c-.188.253-.388.5-.6.737Zm22.4-4.655a28.043,28.043,0,0,1-3.4,2.9,25.834,25.834,0,0,0-1.019-4.636l6.743-12.58a31.5,31.5,0,0,0,5.312-2.994,2.376,2.376,0,0,0,.538-.515,28.1,28.1,0,0,1-8.175,17.823Zm-.3-16.315c.251.478.5.962.747,1.452l-6.513,12.15c-.037.008-.073.017-.111.022a59.414,59.414,0,0,1-10.648,1.024l-6.5-11.239q1.518-2.818,3.008-5.651c.675-1.28,1.338-2.568,2-3.856l13.452-1.382a75.087,75.087,0,0,1,4.565,7.481Zm-2.729-14.411c-.638,1.686-1.322,3.354-2,5.026l-13.1,1.346c-.157-.207-.319-.41-.49-.6q-2.321-2.628-4.66-5.241c.014-.018.028-.031.042-.047l-1.884-1.882,3.648-10.984a5.108,5.108,0,0,1,.761-.15c1.983-.2,3.969-.43,5.957-.545a28.972,28.972,0,0,1,3.68-.02l9.026,10.174c-.311.982-.615,1.967-.976,2.927Zm3.028-9.213a28.116,28.116,0,0,1,5.781,8.372,28.661,28.661,0,0,0-5.386-2.894c-.295-.122-.6-.229-.9-.335l-8.885-10.014a11.74,11.74,0,0,0,.107-1.3,28.1,28.1,0,0,1,9.286,6.174Zm-29.012-6.7c.035.026.052.048.072.053a22.587,22.587,0,0,1,5.62,2.961l-3.408,10.264a.369.369,0,0,0-.051.018c-.7.288-1.408.547-2.095.859a60.084,60.084,0,0,0-8.186,4.417l-6.726-3.979a2.029,2.029,0,0,1,.117-.613c.452-1.2.9-2.413,1.407-3.592a26.924,26.924,0,0,1,1.331-2.643c.32-.353.652-.7.993-1.045a28.073,28.073,0,0,1,10.988-6.8c-.02.033-.043.067-.062.1Z" transform="translate(79.752 36.38)" fill="#fff"/>
        <path id="Path_192" data-name="Path 192" d="M194.009,343.36a57.083,57.083,0,0,1,8.821-.676c1.412,0,2.825.052,4.2.155a6.633,6.633,0,0,1,5.965,6.25,65.866,65.866,0,0,1-.486,13.651Zm-35.951,37.649a65.87,65.87,0,0,0-.486,13.651,6.634,6.634,0,0,0,5.965,6.25c1.372.1,2.783.155,4.2.155h0a57.107,57.107,0,0,0,8.819-.675Zm53.757-14.383A46.951,46.951,0,0,1,201.124,388.4c-.024.027-.049.052-.074.078a43.272,43.272,0,0,1-20.787,11.192l-21.515-22.545a46.951,46.951,0,0,1,10.691-21.771q.036-.04.074-.077A43.271,43.271,0,0,1,190.3,344.082Zm-15,.127-2.223-2.33,1.73-1.812a1.685,1.685,0,0,0,0-2.3,1.505,1.505,0,0,0-2.2,0l-1.73,1.812-2.224-2.33a1.505,1.505,0,0,0-2.2,0,1.685,1.685,0,0,0,0,2.3l2.223,2.33-2.542,2.663-2.224-2.33a1.505,1.505,0,0,0-2.2,0,1.685,1.685,0,0,0,0,2.3l2.223,2.33-2.542,2.663-2.224-2.329a1.505,1.505,0,0,0-2.2,0,1.685,1.685,0,0,0,0,2.3l2.223,2.33-2.542,2.663-2.224-2.33a1.505,1.505,0,0,0-2.2,0,1.685,1.685,0,0,0,0,2.3l2.223,2.33-1.73,1.812a1.685,1.685,0,0,0,0,2.3,1.505,1.505,0,0,0,2.2,0l1.73-1.812,2.223,2.33a1.506,1.506,0,0,0,2.2,0,1.685,1.685,0,0,0,0-2.3l-2.223-2.33,2.542-2.663,2.223,2.33a1.506,1.506,0,0,0,2.2,0,1.685,1.685,0,0,0,0-2.3l-2.224-2.33,2.542-2.663,2.223,2.33a1.506,1.506,0,0,0,2.2,0,1.684,1.684,0,0,0,0-2.3l-2.223-2.33,2.542-2.663,2.223,2.33a1.506,1.506,0,0,0,2.2,0,1.687,1.687,0,0,0,0-2.3Z" transform="translate(36.814 93.705)" fill="#fff"/>
        <path id="Path_193" data-name="Path 193" d="M191.231,165.576a57.072,57.072,0,0,1,8.82-.675c1.412,0,2.825.052,4.2.155a6.633,6.633,0,0,1,5.965,6.25,65.869,65.869,0,0,1-.486,13.651ZM155.28,203.225a65.867,65.867,0,0,0-.486,13.651,6.633,6.633,0,0,0,5.965,6.25c1.372.1,2.783.155,4.2.155h0a57.083,57.083,0,0,0,8.819-.675Zm53.757-14.383a46.953,46.953,0,0,1-10.691,21.771q-.036.04-.074.077a43.272,43.272,0,0,1-20.787,11.192L155.97,199.338a46.952,46.952,0,0,1,10.691-21.771q.036-.04.074-.077A43.273,43.273,0,0,1,187.523,166.3Zm-15,.127-2.223-2.33,1.73-1.813a1.685,1.685,0,0,0,0-2.3,1.505,1.505,0,0,0-2.2,0l-1.73,1.812-2.224-2.33a1.505,1.505,0,0,0-2.2,0,1.685,1.685,0,0,0,0,2.3l2.223,2.33-2.542,2.663-2.224-2.33a1.505,1.505,0,0,0-2.2,0,1.685,1.685,0,0,0,0,2.3l2.223,2.33-2.542,2.663-2.223-2.33a1.505,1.505,0,0,0-2.2,0,1.685,1.685,0,0,0,0,2.3l2.223,2.33-2.542,2.663-2.224-2.33a1.505,1.505,0,0,0-2.2,0,1.685,1.685,0,0,0,0,2.3l2.223,2.33-1.73,1.812a1.685,1.685,0,0,0,0,2.3,1.506,1.506,0,0,0,2.2,0l1.73-1.812,2.224,2.33a1.505,1.505,0,0,0,2.2,0,1.684,1.684,0,0,0,0-2.3l-2.223-2.33,2.542-2.663,2.223,2.33a1.505,1.505,0,0,0,2.2,0,1.685,1.685,0,0,0,0-2.3l-2.224-2.33,2.542-2.663,2.224,2.33a1.505,1.505,0,0,0,2.2,0,1.684,1.684,0,0,0,0-2.3l-2.223-2.33,2.542-2.663,2.223,2.33a1.505,1.505,0,0,0,2.2,0,1.687,1.687,0,0,0,0-2.3Z" transform="translate(36.165 38.564)" fill="#fff"/>
        <path id="Path_194" data-name="Path 194" d="M194.01-29.324a57.079,57.079,0,0,1,8.82-.676c1.412,0,2.825.052,4.2.155a6.634,6.634,0,0,1,5.965,6.25A65.867,65.867,0,0,1,212.5-9.944ZM158.057,8.325a65.867,65.867,0,0,0-.486,13.651,6.634,6.634,0,0,0,5.965,6.25c1.372.1,2.783.155,4.2.155h0a57.1,57.1,0,0,0,8.819-.675ZM211.815-6.058a46.952,46.952,0,0,1-10.691,21.771q-.036.04-.074.077a43.27,43.27,0,0,1-20.787,11.192L158.747,4.438a46.952,46.952,0,0,1,10.691-21.771c.024-.027.048-.052.074-.078A43.272,43.272,0,0,1,190.3-28.6Zm-15,.127-2.223-2.33,1.73-1.812a1.685,1.685,0,0,0,0-2.3,1.505,1.505,0,0,0-1.1-.477,1.505,1.505,0,0,0-1.1.477l-1.73,1.812-2.224-2.33a1.505,1.505,0,0,0-1.1-.477,1.505,1.505,0,0,0-1.1.477,1.685,1.685,0,0,0,0,2.3l2.223,2.33L187.651-5.6l-2.224-2.33a1.505,1.505,0,0,0-1.1-.477,1.505,1.505,0,0,0-1.1.477,1.685,1.685,0,0,0,0,2.3l2.223,2.33L182.91-.63l-2.224-2.33a1.505,1.505,0,0,0-1.1-.477,1.505,1.505,0,0,0-1.1.477,1.685,1.685,0,0,0,0,2.3l2.223,2.33-2.542,2.663-2.224-2.33a1.505,1.505,0,0,0-2.2,0,1.685,1.685,0,0,0,0,2.3l2.223,2.33-1.73,1.812a1.685,1.685,0,0,0,0,2.3,1.506,1.506,0,0,0,2.2,0l1.73-1.812,2.223,2.33a1.506,1.506,0,0,0,2.2,0,1.685,1.685,0,0,0,0-2.3l-2.222-2.33,2.542-2.663,2.223,2.33a1.506,1.506,0,0,0,2.2,0,1.685,1.685,0,0,0,0-2.3l-2.224-2.33L187.653-.99l2.223,2.33a1.506,1.506,0,0,0,2.2,0,1.684,1.684,0,0,0,0-2.3l-2.223-2.33,2.542-2.663,2.223,2.33a1.516,1.516,0,0,0,1.1.477,1.516,1.516,0,0,0,1.1-.477,1.687,1.687,0,0,0,0-2.3Z" transform="translate(36.814 -7.016)" fill="#fff"/>
        <path id="Path_195" data-name="Path 195" d="M69.048,118.182a2.18,2.18,0,0,1-1.661-.75C64.036,113.5,54.719,95.3,58.522,83.762A30.55,30.55,0,0,1,82.373,63.681c12.775-2.339,25.543,2.559,35.042,13.438a1.906,1.906,0,0,1-.3,2.8,2.172,2.172,0,0,1-.67.346L97.33,86.236a2.162,2.162,0,0,1-2.69-1.261,1.968,1.968,0,0,1,1.345-2.521h0l16.081-5.025c-8.2-8.16-18.577-11.742-28.883-9.849a26.4,26.4,0,0,0-20.6,17.348c-3.29,10.015,5.554,27,8.123,30.024a1.907,1.907,0,0,1-.338,2.8,2.215,2.215,0,0,1-1.32.433Z" transform="translate(13.476 14.759)" fill="#fff"/>
        <path id="Path_196" data-name="Path 196" d="M97.017,114.535H67.284a1.994,1.994,0,1,1,0-3.98H94.893v-8.27a2.4,2.4,0,0,0-.656-1.638l-4.849-5.182a9.912,9.912,0,0,1,1.039-14.617,11.26,11.26,0,0,1,3.786-2.033A2.161,2.161,0,0,1,96.9,80.077a1.967,1.967,0,0,1-1.346,2.52,6.2,6.2,0,0,0-2.974,10.257l4.842,5.174a6.239,6.239,0,0,1,1.7,4.257v10.259a2.059,2.059,0,0,1-2.107,1.99Z" transform="translate(15.238 18.406)" fill="#fff"/>
        <path id="Path_197" data-name="Path 197" d="M104.929,112.266H90.062a1.994,1.994,0,1,1,0-3.98h13.9a12.753,12.753,0,0,0,3.094-7.961,12.493,12.493,0,0,0-2.6-7.338,20.088,20.088,0,0,1-8.017,1.367h-8.5a1.994,1.994,0,1,1,0-3.98h8.5c5.193,0,7.03-1.441,7.049-1.455a2.306,2.306,0,0,1,2.948.048,15.682,15.682,0,0,1,0,22.716,2.2,2.2,0,0,1-1.5.582Z" transform="translate(20.069 20.676)" fill="#fff"/>
        <path id="Path_198" data-name="Path 198" d="M106.247,98.821H91.381a1.994,1.994,0,1,1,0-3.98h14.866a1.994,1.994,0,1,1,0,3.98Z" transform="translate(20.874 22.179)" fill="#fff"/>
        <path id="Path_199" data-name="Path 199" d="M106.247,103.66H91.381a1.994,1.994,0,1,1,0-3.98h14.866a1.994,1.994,0,1,1,0,3.98Z" transform="translate(20.874 23.31)" fill="#fff"/>
        <path id="Path_200" data-name="Path 200" d="M98.266,111.893a2.061,2.061,0,0,1-2.124-1.99V91.991a2.128,2.128,0,0,1,4.248,0V109.9a2.061,2.061,0,0,1-2.124,1.991Z" transform="translate(22.484 21.048)" fill="#fff"/>
        <path id="Path_201" data-name="Path 201" d="M80.321,84.682A2.992,2.992,0,1,1,83.506,81.7a3.09,3.09,0,0,1-3.186,2.985Zm0-3.98a1,1,0,1,0,1.062,1,1.03,1.03,0,0,0-1.062-1Z" transform="translate(18.13 18.406)" fill="#fff"/>
        <path id="Path_202" data-name="Path 202" d="M84.624,103.231a2.992,2.992,0,1,1,3.186-2.985,3.09,3.09,0,0,1-3.186,2.985Zm0-3.98a1,1,0,1,0,1.062,1,1.03,1.03,0,0,0-1.062-.995Z" transform="translate(19.136 22.744)" fill="#fff"/>
        <path id="Path_203" data-name="Path 203" d="M254.713,255.427v52.214h5.221V291.977h41.771V255.427Zm26.107,5.221h5.221v5.219H280.82Zm-10.443,0H275.6v5.219h-5.221v-5.219Zm26.107,5.221h-5.221v5.219h-5.221v5.221h5.221v-5.219h5.221v5.221h-5.221v5.221h5.221v5.221h-5.221v-5.221h-5.221v5.221H280.82v-5.221H275.6v5.221h-5.221v-5.221h-5.221v5.221h-5.221v-5.221h5.221v-5.221h-5.221v-5.221h5.221v5.219h5.221v-5.221h-5.221v-5.219h-5.221v-5.221h5.221v5.221h5.221v5.219H275.6v-5.219h5.221v5.219h5.221v-5.219h5.221v-5.221h5.221Z" transform="translate(59.568 59.735)" fill="#fff"/>
        <rect id="Rectangle_43" data-name="Rectangle 43" width="5.221" height="5.221" transform="translate(335.166 330.823)" fill="#fff"/>
        <rect id="Rectangle_44" data-name="Rectangle 44" width="5.221" height="5.221" transform="translate(329.945 336.045)" fill="#fff"/>
        <rect id="Rectangle_45" data-name="Rectangle 45" width="5.221" height="5.221" transform="translate(340.388 336.045)" fill="#fff"/>
        <path id="Path_204" data-name="Path 204" d="M263.177,66.942v52.214H268.4V103.492H310.17V66.942Zm26.107,5.221h5.221v5.219h-5.221Zm-10.443,0h5.221v5.219h-5.221Zm26.107,5.221h-5.221V82.6H294.5v5.221h5.221V82.606h5.221v5.221h-5.221v5.221h5.221V98.27h-5.221V93.049H294.5V98.27h-5.221V93.049h-5.221V98.27H278.84V93.049h-5.221V98.27H268.4V93.049h5.221V87.827H268.4V82.606h5.221v5.219h5.221V82.6h-5.221V77.384H268.4V72.163h5.221v5.221h5.221V82.6h5.221V77.385h5.221V82.6H294.5V77.385h5.221V72.163h5.221Z" transform="translate(61.547 15.655)" fill="#fff"/>
        <rect id="Rectangle_46" data-name="Rectangle 46" width="5.221" height="5.221" transform="translate(345.608 98.258)" fill="#fff"/>
        <rect id="Rectangle_47" data-name="Rectangle 47" width="5.221" height="5.221" transform="translate(340.388 103.48)" fill="#fff"/>
        <rect id="Rectangle_48" data-name="Rectangle 48" width="5.221" height="5.221" transform="translate(350.83 103.48)" fill="#fff"/>
        <path id="Path_205" data-name="Path 205" d="M98.762,170.589l3.773,7.645,8.437,1.225-6.105,5.951,1.441,8.4-7.546-3.967-7.545,3.967,1.441-8.4-6.105-5.951,8.437-1.225Z" transform="translate(20.241 39.894)" fill="#fff"/>
        <path id="Path_206" data-name="Path 206" d="M183.974,253.15l6.48,13.13,14.488,2.105L194.458,278.6l2.475,14.43-12.959-6.812-12.959,6.812,2.475-14.43-10.484-10.22,14.488-2.105Z" transform="translate(38.121 59.202)" fill="#fff"/>
        <path id="Path_207" data-name="Path 207" d="M273.352,168.992l4.414,8.942,9.867,1.434-7.14,6.96,1.687,9.829-8.827-4.641-8.826,4.641,1.685-9.829-7.14-6.96,9.868-1.434Z" transform="translate(60.587 39.521)" fill="#fff"/>
        <path id="Path_208" data-name="Path 208" d="M42.35,23.784l4.135,8.379,9.247,1.344-6.69,6.522,1.579,9.21L42.35,44.89,34.08,49.239l1.579-9.21-6.691-6.522,9.247-1.344Z" transform="translate(6.775 5.562)" fill="#fff"/>
        <path id="Path_209" data-name="Path 209" d="M327.949,313.187l4.136,8.379,9.247,1.344-6.691,6.522,1.579,9.21-8.271-4.348-8.271,4.348,1.581-9.21-6.691-6.522,9.247-1.344Z" transform="translate(73.566 73.243)" fill="#fff"/>
        <path id="Path_210" data-name="Path 210" d="M329.215,23.137l4.135,8.379L342.6,32.86l-6.691,6.522,1.579,9.21-8.271-4.348-8.271,4.348,1.579-9.21-6.691-6.522,9.247-1.344Z" transform="translate(73.861 5.411)" fill="#fff"/>
        <path id="Path_211" data-name="Path 211" d="M39.171,314.065l4.136,8.379,9.247,1.344-6.691,6.522,1.579,9.21-8.271-4.348L30.9,339.52l1.579-9.21-6.69-6.522,9.247-1.344Z" transform="translate(6.031 73.448)" fill="#fff"/>
        <path id="Path_212" data-name="Path 212" d="M161.566,91.45a5.677,5.677,0,0,0-5.678,5.678,5.321,5.321,0,0,0,.051.712,5.674,5.674,0,0,0,11.283-.228c.014-.16.025-.322.025-.485a5.678,5.678,0,0,0-5.68-5.678Zm-2.844,3.537,1.16,1.158a1.92,1.92,0,0,0-.206.5h-1.633a3.537,3.537,0,0,1,.679-1.658Zm-.685,2.641h1.644a1.943,1.943,0,0,0,.207.495l-1.161,1.16a3.549,3.549,0,0,1-.69-1.654Zm3.037,3.027a3.536,3.536,0,0,1-1.646-.681l1.154-1.156a1.918,1.918,0,0,0,.491.2Zm0-5.417a2.042,2.042,0,0,0-.5.21l-1.154-1.156a3.511,3.511,0,0,1,1.656-.686v1.632Zm.983-1.632a3.515,3.515,0,0,1,1.66.687l-1.155,1.155a2.019,2.019,0,0,0-.5-.21V93.606Zm0,7.05V99.018a2,2,0,0,0,.495-.2l1.154,1.158a3.518,3.518,0,0,1-1.648.681Zm2.353-1.37-1.164-1.164a2.028,2.028,0,0,0,.211-.493h1.631a3.53,3.53,0,0,1-.678,1.657Zm-.953-2.64a1.924,1.924,0,0,0-.2-.5l1.158-1.158a3.517,3.517,0,0,1,.68,1.659h-1.634Z" transform="translate(36.456 21.387)" fill="#fff"/>
        <path id="Path_213" data-name="Path 213" d="M205.836,98.3a6.949,6.949,0,0,1,3.367-5.946L195.826,86.43h-8.392a.905.905,0,0,0-.9.906v1.189a.905.905,0,0,0,.9.906h.6v.824h-1.522a1.112,1.112,0,0,0-1.056.762l-.122.363c-2.771-.224-4.089,1.9-5.474,1.9l-.935-1.126a2.647,2.647,0,0,0-2.281-.946,3.675,3.675,0,0,0-.833.175l-.525,1.9s-4.763-.277-10.953-.055A6.934,6.934,0,0,1,166.55,98.3c0,.2.032,4.4.032,4.4h40.836a6.9,6.9,0,0,1-1.521-3.528A7,7,0,0,1,205.836,98.3Z" transform="translate(38.43 20.213)" fill="#fff"/>
        <path id="Path_214" data-name="Path 214" d="M157,96.854a6.915,6.915,0,0,1,1.45-4.234,38.938,38.938,0,0,0-12.774,3.61c0,.973,4.274.016,4.274,2.024h-3.3a.6.6,0,0,0-.6.6v1.8a.6.6,0,0,0,.6.6h8.244a.6.6,0,0,0,.6-.6V97.879h1.589c-.007-.051-.02-.1-.027-.153A6.67,6.67,0,0,1,157,96.854Z" transform="translate(34.068 21.66)" fill="#fff"/>
        <path id="Path_215" data-name="Path 215" d="M212.6,85.518h-8.81a1.5,1.5,0,0,0-1.5,1.5v1.965a1.5,1.5,0,0,0,.439,1.06l1.534,1.533a6.96,6.96,0,0,1,6.615,6.939c0,.092-.01.185-.014.276h3.235V87.018a1.5,1.5,0,0,0-1.5-1.5Z" transform="translate(47.307 19.999)" fill="#fff"/>
        <path id="Path_216" data-name="Path 216" d="M204.883,91.45a5.677,5.677,0,0,0-5.678,5.678,5.316,5.316,0,0,0,.051.712,5.675,5.675,0,0,0,11.284-.228c.014-.16.023-.322.023-.485a5.678,5.678,0,0,0-5.68-5.678Zm-2.843,3.537,1.158,1.158a1.955,1.955,0,0,0-.206.5h-1.634a3.54,3.54,0,0,1,.682-1.658Zm-.686,2.641H203a1.942,1.942,0,0,0,.207.495l-1.161,1.16a3.55,3.55,0,0,1-.69-1.654Zm3.037,3.027a3.533,3.533,0,0,1-1.646-.681l1.154-1.154a2,2,0,0,0,.492.2v1.637Zm0-5.417a2.015,2.015,0,0,0-.5.21l-1.154-1.156a3.506,3.506,0,0,1,1.657-.686v1.633h0Zm.983-1.632a3.514,3.514,0,0,1,1.66.687l-1.154,1.155a2.019,2.019,0,0,0-.5-.21l0-1.632Zm0,7.05V99.018a2.014,2.014,0,0,0,.5-.2l1.154,1.158a3.528,3.528,0,0,1-1.65.681Zm2.354-1.37-1.164-1.164a2.029,2.029,0,0,0,.212-.493h1.631a3.555,3.555,0,0,1-.678,1.657Zm-.953-2.64a1.961,1.961,0,0,0-.205-.5l1.158-1.158a3.506,3.506,0,0,1,.68,1.659h-1.632Z" transform="translate(46.587 21.387)" fill="#fff"/>
        <path id="Path_217" data-name="Path 217" d="M56.566,272.45a5.677,5.677,0,0,0-5.678,5.678,5.32,5.32,0,0,0,.051.712,5.674,5.674,0,0,0,11.283-.228c.014-.16.025-.322.025-.485a5.678,5.678,0,0,0-5.68-5.678Zm-2.844,3.537,1.16,1.158a1.92,1.92,0,0,0-.206.5H53.042a3.537,3.537,0,0,1,.68-1.657Zm-.685,2.641h1.644a1.944,1.944,0,0,0,.207.495l-1.161,1.16a3.549,3.549,0,0,1-.69-1.654Zm3.037,3.027a3.536,3.536,0,0,1-1.646-.681l1.154-1.156a1.916,1.916,0,0,0,.491.2Zm0-5.417a2.041,2.041,0,0,0-.5.21l-1.154-1.156a3.511,3.511,0,0,1,1.656-.686v1.632Zm.983-1.632a3.515,3.515,0,0,1,1.66.687l-1.155,1.155a2.02,2.02,0,0,0-.5-.21v-1.632Zm0,7.05v-1.637a2,2,0,0,0,.495-.2l1.154,1.158a3.518,3.518,0,0,1-1.648.681Zm2.353-1.37-1.164-1.164a2.028,2.028,0,0,0,.211-.493H60.09a3.53,3.53,0,0,1-.678,1.657Zm-.953-2.64a1.922,1.922,0,0,0-.2-.5l1.158-1.158a3.516,3.516,0,0,1,.68,1.659H58.459Z" transform="translate(11.901 63.716)" fill="#fff"/>
        <path id="Path_218" data-name="Path 218" d="M100.836,279.3a6.949,6.949,0,0,1,3.367-5.946L90.826,267.43H82.434a.9.9,0,0,0-.9.905v1.189a.905.905,0,0,0,.9.906h.6v.824H81.507a1.112,1.112,0,0,0-1.056.762l-.122.363c-2.771-.224-4.089,1.9-5.474,1.9l-.935-1.126a2.647,2.647,0,0,0-2.281-.946,3.671,3.671,0,0,0-.833.175l-.525,1.9s-4.763-.277-10.953-.055A6.934,6.934,0,0,1,61.55,279.3c0,.2.032,4.4.032,4.4h40.836a6.9,6.9,0,0,1-1.521-3.528A7,7,0,0,1,100.836,279.3Z" transform="translate(13.875 62.542)" fill="#fff"/>
        <path id="Path_219" data-name="Path 219" d="M52,277.853a6.915,6.915,0,0,1,1.45-4.234,38.938,38.938,0,0,0-12.774,3.61c0,.973,4.274.016,4.274,2.024h-3.3a.6.6,0,0,0-.6.6v1.8a.6.6,0,0,0,.6.6h8.244a.6.6,0,0,0,.6-.6v-2.773h1.589c-.007-.051-.02-.1-.027-.153a6.67,6.67,0,0,1-.061-.873Z" transform="translate(9.512 63.989)" fill="#fff"/>
        <path id="Path_220" data-name="Path 220" d="M107.6,266.518h-8.81a1.5,1.5,0,0,0-1.5,1.5v1.965a1.5,1.5,0,0,0,.439,1.06l1.534,1.533a6.96,6.96,0,0,1,6.615,6.939c0,.092-.01.185-.014.276h3.235V268.018a1.5,1.5,0,0,0-1.5-1.5Z" transform="translate(22.751 62.328)" fill="#fff"/>
        <path id="Path_221" data-name="Path 221" d="M99.883,272.45a5.677,5.677,0,0,0-5.678,5.678,5.32,5.32,0,0,0,.051.712,5.675,5.675,0,0,0,11.284-.228c.014-.16.023-.322.023-.485a5.678,5.678,0,0,0-5.68-5.678Zm-2.843,3.537,1.158,1.158a1.955,1.955,0,0,0-.206.5H96.359a3.541,3.541,0,0,1,.681-1.657Zm-.686,2.641H98a1.944,1.944,0,0,0,.207.495l-1.161,1.16a3.551,3.551,0,0,1-.69-1.654Zm3.037,3.027a3.533,3.533,0,0,1-1.646-.681l1.154-1.154a2,2,0,0,0,.492.2v1.637Zm0-5.417a2.015,2.015,0,0,0-.5.21l-1.154-1.156a3.506,3.506,0,0,1,1.657-.686v1.633Zm.983-1.632a3.514,3.514,0,0,1,1.66.687l-1.154,1.155a2.023,2.023,0,0,0-.5-.21l0-1.632Zm0,7.05v-1.637a2.012,2.012,0,0,0,.5-.2l1.154,1.158a3.527,3.527,0,0,1-1.65.681Zm2.354-1.37-1.164-1.164a2.03,2.03,0,0,0,.212-.493h1.631a3.555,3.555,0,0,1-.678,1.657Zm-.953-2.64a1.96,1.96,0,0,0-.205-.5l1.158-1.158a3.506,3.506,0,0,1,.68,1.659h-1.632Z" transform="translate(22.031 63.716)" fill="#fff"/>
      </g>
    </g>
  </g>
</svg>
